<svg width="718" height="739" viewBox="0 0 718 739" fill="none" xmlns="http://www.w3.org/2000/svg">
<circle cx="387.5" cy="351.5" r="387.5" fill="#399F4B"/>
<circle cx="387.5" cy="351.5" r="237.5" fill="#3EAC51"/>
<ellipse cx="391" cy="348.5" rx="191" ry="189.5" fill="#3EAC51"/>
<path d="M518 349C518 418.581 461.148 475 391 475C320.852 475 264 418.581 264 349C264 279.42 320.852 223 391 223C461.148 223 518 279.42 518 349Z" stroke="#37A349" stroke-width="2"/>
<g filter="url(#filter0_di)">
<ellipse cx="389.493" cy="346.194" rx="103.8" ry="102.862" fill="url(#paint0_linear)"/>
</g>
<g filter="url(#filter1_d)">
<mask id="mask0" mask-type="alpha" maskUnits="userSpaceOnUse" x="266" y="132" width="234" height="318">
<path d="M497.211 392.675C497.211 427.675 475.654 412.374 448.703 430.954C431.91 442.532 411.502 449.319 389.494 449.319C367.486 449.319 347.077 442.532 330.284 430.954C303.334 412.374 267.644 427.675 267.644 392.675C267.644 361.258 258.358 301.246 287.387 239.255C310.849 189.154 370.06 132.086 395.683 132.086C437.272 132.086 481.304 160.933 497.211 241.511C503.231 272.004 497.211 377.079 497.211 392.675Z" fill="#399F4B"/>
</mask>
<g mask="url(#mask0)">
<path d="M437.587 229.027C434.62 236.416 434.71 251.691 439.64 257.929C442.212 261.189 445.709 263.795 447.536 267.529C449.928 272.425 448.901 278.517 445.901 283.063C442.9 287.609 438.173 290.79 433.198 293.024C427.659 295.528 420.88 296.905 415.713 293.701C411.765 291.264 409.678 286.695 408.414 282.228C404.872 269.729 406.158 256.282 409.836 243.783C413.513 231.283 419.503 219.63 425.426 208.101" fill="#263238"/>
<path d="M454.034 332.62L480.477 316.477C480.477 316.477 460.397 277.795 457.373 276.396C454.35 274.997 413.818 269.03 413.818 269.03C401.488 288.41 386.055 283.627 370.499 270.699C369.111 270.981 344.632 276.554 338.236 277.389C331.839 278.224 313.417 307.577 313.417 307.577L334.31 344.116L335.889 381.974C335.889 381.974 337.017 408.902 332.606 422.8L443.475 426.399C442.263 420.625 441.412 414.782 440.926 408.902C440.508 404.198 439.234 399.505 440.193 393.458C443.227 374.258 454.034 332.62 454.034 332.62Z" fill="#349A47"/>
<path d="M326.401 288.828C328.071 294.4 342.195 302.658 347.158 299.567C348.726 298.586 350.08 297.119 351.896 296.769C354.152 296.318 356.33 297.762 358.529 298.495C363.696 300.199 370.318 298.292 374.041 302.252C375.88 304.203 377.041 307.52 379.681 307.441C380.631 307.283 381.561 307.026 382.456 306.674C385.446 305.929 388.345 308.219 391.425 308.434C393.039 308.449 394.643 308.177 396.163 307.633L418.273 301.158C419.875 300.684 421.658 300.029 422.346 298.518C419.696 299.35 416.839 299.23 414.269 298.179C412.901 297.424 411.461 296.808 409.97 296.341C406.067 295.54 402.514 298.597 398.633 299.556C394.549 300.515 390.342 298.992 386.427 297.48L366.381 289.775C360.853 287.654 355.19 285.443 350.802 281.484C349.403 280.231 344.158 282.871 342.522 281.969C340.619 280.682 338.803 279.273 337.084 277.75C336.746 277.501 333.7 280.243 332.358 281.687C331.015 283.131 326.401 288.828 326.401 288.828Z" fill="#FAFAFA"/>
<path d="M335.945 381.975C340.863 379.899 349.301 376.628 354.547 375.646C358.41 374.804 362.385 374.606 366.313 375.06C368.264 375.342 370.284 375.872 372.179 375.308C374.074 374.744 375.349 373.367 377.018 372.544C381.813 370.186 387.544 373.119 392.812 372.431C394.144 372.341 395.395 371.758 396.32 370.795C396.757 370.3 396.992 369.66 396.979 369C396.967 368.34 396.707 367.709 396.252 367.231C395.628 366.791 394.884 366.555 394.12 366.554C391.595 366.381 389.06 366.411 386.54 366.644L382.467 366.903C380.778 367.106 379.067 367.03 377.402 366.678C375.812 366.107 374.27 365.413 372.788 364.602C367.351 362.211 361.112 363.282 355.235 364.106C352.321 364.677 349.327 364.707 346.402 364.196C345.429 363.875 344.414 363.7 343.39 363.677C341.664 363.779 340.209 365.053 338.505 365.335C336.802 365.617 336.7 362.357 335.121 361.951L335.945 381.975Z" fill="#FAFAFA"/>
<path d="M443.824 331.244C443.22 331.639 442.552 331.925 441.85 332.09C438.658 332.53 436.695 326.912 433.638 327.939C432.51 328.334 431.686 329.699 430.434 329.845C429.182 329.992 428.031 328.582 426.745 328.007C424.489 326.991 421.939 328.819 419.435 329.022C416.615 329.236 413.321 327.476 411.211 329.372C410.388 330.105 409.914 331.335 408.842 331.628C407.771 331.921 406.857 331.188 405.853 330.883C402.784 329.97 399.975 332.925 396.828 333.467C393.241 334.087 388.931 331.662 386.235 334.065C385.265 334.911 384.678 336.321 383.438 336.648C382.197 336.975 381.091 336.264 379.895 336.253C377.143 336.253 374.616 339.886 372.292 338.396C372.488 339.039 372.876 339.605 373.405 340.019C373.934 340.432 374.577 340.673 375.248 340.709C376.584 340.764 377.922 340.65 379.23 340.371C387.025 339.412 394.944 344.488 402.502 342.356C404.589 341.769 406.541 340.641 408.696 340.483C412.734 340.19 416.389 343.326 420.428 343.18C423.575 343.055 426.497 340.923 429.633 341.307C432.769 341.69 435.183 344.499 438.116 345.887C441.625 347.557 445.731 347.071 449.589 346.553L450.717 346.293C452.533 341.33 453.829 336.192 454.586 330.962C452.891 330.182 451.039 329.801 449.173 329.85C447.307 329.899 445.477 330.376 443.824 331.244Z" fill="#FAFAFA"/>
<path d="M434.743 398.761C433.21 398.927 431.753 399.517 430.535 400.464C429.319 401.418 427.817 401.935 426.271 401.931C423.496 401.637 421.014 398.231 418.589 399.607C417.981 400.073 417.412 400.586 416.885 401.141C415.193 402.529 412.497 402.145 410.884 403.623C410.049 404.379 409.598 405.574 408.571 406.06C406.642 406.962 404.815 404.728 402.863 403.86C399.817 402.495 396.354 404.616 393.015 404.548C391.323 404.548 389.529 403.927 387.995 404.627C387.203 405.102 386.449 405.638 385.739 406.229C383.189 407.932 379.76 407.142 376.906 406.003C374.052 404.864 371.073 403.431 368.061 404.029C367.227 404.198 366.279 404.717 366.302 405.574C366.326 405.905 366.443 406.222 366.64 406.488C368.422 409.421 371.829 410.933 375.135 411.892C378.756 412.941 382.58 413.55 385.806 415.513C387.848 416.743 389.992 418.581 392.293 417.95C394.12 417.453 395.237 415.558 396.997 414.881C399.479 413.922 402.423 415.66 404.894 414.633C405.717 414.295 406.405 413.663 407.24 413.358C409.417 412.569 411.843 414.159 414.099 413.652C414.868 413.345 415.671 413.133 416.491 413.02C418.645 413.02 420.044 415.987 422.131 415.705C423.44 415.524 424.331 414.137 425.639 413.9C427.365 413.573 429.317 415.321 430.716 414.261C431.032 414.024 431.28 413.64 431.686 413.606C432.092 413.573 432.577 414.159 432.904 414.61C434.427 416.618 439.075 415.321 441.421 414.407L439.898 400.87C439.977 399.156 436.289 398.761 434.743 398.761Z" fill="#FAFAFA"/>
<g opacity="0.3">
<path opacity="0.3" d="M339.691 289.301C337.592 295.935 336.769 303.199 338.856 309.833C339.966 312.856 341.258 315.81 342.725 318.677C347.299 328.727 349.24 339.775 348.366 350.782C348.282 351.163 348.33 351.561 348.501 351.911C348.941 352.644 350.058 352.373 350.836 352.023L355.834 349.767C357.999 351.527 358.327 355.013 360.718 356.434C363.11 357.856 366.438 356.265 368.829 354.528C374.075 350.681 379.05 346.214 382.096 340.46C384.024 336.43 385.452 332.18 386.348 327.803C387.285 323.979 388.232 320.155 388.819 316.263C391.107 300.832 387.759 285.093 379.388 271.929" fill="black"/>
</g>
<path d="M445.63 295.213C445.738 295.396 445.817 295.593 445.867 295.8C446.025 296.262 446.228 296.826 446.465 297.525C446.972 299.105 447.672 301.271 448.529 303.899C449.386 306.528 450.402 309.833 451.53 313.375C452.801 317.247 453.751 321.216 454.373 325.243C454.856 329.309 454.654 333.427 453.775 337.426C453.075 340.68 452.125 343.874 450.932 346.981C449.939 349.632 449.037 351.742 448.405 353.197C448.104 353.859 447.856 354.411 447.66 354.855C447.584 355.056 447.482 355.245 447.356 355.419C447.391 355.208 447.455 355.003 447.548 354.81L448.191 353.107C448.766 351.629 449.601 349.497 450.548 346.846C451.67 343.739 452.571 340.558 453.245 337.325C454.075 333.376 454.258 329.318 453.786 325.31C453.173 321.318 452.245 317.379 451.011 313.533C449.883 309.968 448.958 306.765 448.134 304.023C447.311 301.282 446.713 299.195 446.25 297.593L445.754 295.833C445.684 295.633 445.642 295.425 445.63 295.213Z" fill="#263238"/>
<g opacity="0.3">
<path opacity="0.3" d="M455.388 328.605C456.978 323.156 456.784 317.342 454.835 312.011C452.894 306.718 450.257 301.706 446.995 297.108C448.552 307.78 453.437 317.82 454.407 328.571" fill="black"/>
</g>
<g opacity="0.3">
<path opacity="0.3" d="M365.321 396.956C370.087 390.577 376.481 385.597 383.833 382.539C391.158 379.505 398.862 377.482 406.733 376.526C409.835 376.075 413.208 375.759 415.927 377.327C418.646 378.895 419.932 383.148 417.563 385.223C416.259 386.134 414.697 386.601 413.107 386.555C402.255 387.344 390.793 387.378 381.407 392.906C377.696 395.083 374.402 398.084 370.307 399.404C368.446 400.001 365.693 399.663 365.501 397.723" fill="black"/>
</g>
<path d="M420.643 375.071C420.425 375.094 420.206 375.094 419.988 375.071H418.116H416.751L415.149 375.172C414.021 375.262 412.678 375.307 411.234 375.522L408.978 375.804C408.188 375.917 407.387 376.086 406.541 376.232C404.849 376.503 403.078 376.966 401.205 377.361C397.178 378.449 393.231 379.817 389.394 381.456C385.567 383.128 381.849 385.038 378.26 387.175C376.613 388.179 375.045 389.127 373.646 390.108C372.247 391.089 370.916 391.969 369.732 392.827C368.547 393.684 367.475 394.496 366.596 395.196C365.716 395.895 364.892 396.527 364.272 397.046L362.805 398.174C362.641 398.32 362.459 398.445 362.264 398.546C362.403 398.377 362.557 398.223 362.726 398.084L364.114 396.82C364.723 396.267 365.479 395.613 366.37 394.891C367.261 394.169 368.276 393.301 369.461 392.443C370.645 391.586 371.909 390.593 373.342 389.646C374.774 388.698 376.32 387.683 377.955 386.656C381.55 384.479 385.285 382.542 389.135 380.858C392.998 379.203 396.98 377.842 401.048 376.785C402.943 376.357 404.725 375.894 406.429 375.657C407.286 375.522 408.098 375.353 408.888 375.251L411.144 375.014C412.599 374.822 413.919 374.8 415.081 374.743C415.668 374.743 416.209 374.687 416.705 374.687H418.07L419.954 374.755C420.2 374.82 420.433 374.927 420.643 375.071Z" fill="#263238"/>
<g opacity="0.3">
<path opacity="0.3" d="M329.141 314.989C326.265 318.971 325.938 324.341 327.122 329.101C328.307 333.862 330.822 338.126 333.327 342.39C333.665 338.161 333.338 333.906 332.357 329.778C331.172 324.837 329.051 320.032 329.063 314.944" fill="black"/>
</g>
<path d="M409.497 162.459C409.565 158.86 413.671 156.311 417.225 156.92C420.778 157.529 423.553 160.405 425.211 163.598C426.87 166.791 427.671 170.367 428.923 173.751C432.307 182.776 438.952 190.548 441.332 199.934C442.874 206.597 442.664 213.546 440.723 220.104C438.793 226.618 436.132 232.892 432.792 238.808C430.709 242.36 428.953 246.095 427.547 249.965C426.136 253.868 426.005 258.12 427.174 262.103C427.428 262.606 427.484 263.185 427.332 263.728C426.983 264.495 425.888 264.528 425.076 264.314C420.936 263.254 418.071 259.181 417.36 254.962C416.649 250.743 417.732 246.434 419.244 242.429C420.755 238.424 422.696 234.533 423.813 230.46C426.249 221.435 424.557 211.869 424.128 202.517C423.892 197.249 424.061 191.924 423 186.724C421.94 181.523 419.492 176.413 415.104 173.469C413.4 172.341 411.437 171.506 410.005 170.085C408.572 168.663 407.85 166.125 409.147 164.523" fill="#263238"/>
<path d="M413.208 267.09C413.208 267.09 413.084 261.63 413.084 261.686C413.084 261.743 429.249 258.607 432.103 237.365C433.525 226.806 432.588 209.557 431.37 195.479C430.242 182.799 421.488 167.412 408.864 169.047L369.596 179.967C365.771 180.464 364.508 183.746 364.677 187.616L364.395 189.432L367.666 249.999L368.795 260.152C369.37 271.67 379.376 283.842 391.717 284.158C403.63 284.745 413.366 279.837 413.208 267.09Z" fill="#FFBE9D"/>
<path d="M424.151 209.139C424.172 209.847 423.917 210.536 423.439 211.058C422.96 211.581 422.297 211.896 421.59 211.937C421.245 211.973 420.897 211.939 420.566 211.838C420.234 211.737 419.927 211.571 419.661 211.349C419.395 211.127 419.176 210.854 419.017 210.546C418.858 210.238 418.762 209.902 418.736 209.557C418.714 208.85 418.968 208.163 419.444 207.641C419.919 207.119 420.58 206.803 421.285 206.759C421.63 206.723 421.979 206.757 422.311 206.858C422.643 206.959 422.951 207.125 423.218 207.347C423.485 207.568 423.705 207.841 423.865 208.149C424.025 208.457 424.122 208.793 424.151 209.139Z" fill="#263238"/>
<path d="M427.682 205.123C427.355 205.484 425.268 203.995 422.346 204.085C419.424 204.175 417.314 205.676 416.999 205.326C416.829 205.168 417.157 204.525 418.127 203.814C419.373 202.914 420.865 202.418 422.402 202.393C423.918 202.35 425.409 202.792 426.655 203.657C427.569 204.322 427.896 204.965 427.682 205.123Z" fill="#263238"/>
<path d="M399.31 210.606C398.983 210.967 396.885 209.478 393.963 209.579C391.041 209.681 388.943 211.158 388.616 210.809C388.458 210.662 388.785 210.008 389.744 209.308C390.989 208.405 392.481 207.905 394.019 207.876C395.54 207.838 397.033 208.284 398.283 209.151C399.152 209.794 399.479 210.425 399.31 210.606Z" fill="#263238"/>
<path d="M410.252 227.177C410.252 227.008 412.046 226.647 414.979 226.207C415.723 226.106 416.423 225.948 416.535 225.429C416.581 224.656 416.388 223.888 415.983 223.229L413.647 217.589C410.399 209.568 408.007 202.923 408.345 202.844C408.684 202.766 411.572 209.105 414.821 217.126C415.573 219.104 416.325 220.984 417.077 222.767C417.569 223.652 417.733 224.683 417.539 225.677C417.435 225.943 417.272 226.183 417.064 226.378C416.855 226.573 416.605 226.719 416.332 226.805C415.921 226.925 415.497 226.994 415.069 227.008C412.102 227.279 410.263 227.335 410.252 227.177Z" fill="#263238"/>
<path d="M413.084 261.686C403.123 262.072 393.25 259.686 384.565 254.793C384.565 254.793 392.067 269.571 413.208 267.089L413.084 261.686Z" fill="#EB996E"/>
<path d="M399.197 203.194C398.87 203.972 395.982 203.42 392.53 203.611C389.078 203.803 386.258 204.582 385.852 203.837C385.671 203.487 386.19 202.765 387.364 202.066C388.903 201.208 390.623 200.724 392.384 200.656C394.148 200.546 395.912 200.864 397.528 201.581C398.757 202.168 399.344 202.822 399.197 203.194Z" fill="#263238"/>
<path d="M427.287 196.11C426.7 196.787 424.298 196.11 421.443 196.2C418.589 196.291 416.164 196.764 415.589 196.088C415.34 195.749 415.701 195.084 416.717 194.429C418.158 193.63 419.779 193.211 421.427 193.211C423.074 193.211 424.695 193.63 426.136 194.429C427.197 195.106 427.546 195.783 427.287 196.11Z" fill="#263238"/>
<path d="M408.076 233.303C407.638 232.752 407.085 232.303 406.456 231.987C405.826 231.671 405.136 231.497 404.432 231.476C403.633 231.501 402.848 231.692 402.127 232.038C401.407 232.384 400.766 232.876 400.247 233.484L400.168 233.551L400.021 233.709C399.614 234.143 399.361 234.697 399.299 235.289C399.29 235.952 399.444 236.607 399.747 237.197C400.05 237.787 400.493 238.293 401.036 238.673C401.877 239.313 402.895 239.678 403.951 239.719C405.007 239.759 406.049 239.473 406.936 238.898C407.799 238.283 408.397 237.364 408.608 236.325C408.82 235.287 408.63 234.207 408.076 233.303Z" fill="#EB996E"/>
<path d="M400.494 230.472C400.663 230.472 400.799 231.149 401.261 232.107C401.855 233.338 402.786 234.375 403.946 235.097C405.13 235.778 406.485 236.103 407.849 236.033C408.91 236.033 409.575 235.785 409.654 235.943C409.733 236.101 409.124 236.552 407.951 236.823C406.382 237.147 404.748 236.873 403.371 236.056C401.995 235.236 400.979 233.926 400.528 232.389C400.201 231.227 400.359 230.472 400.494 230.472Z" fill="#263238"/>
<path d="M413.693 169.396C413.577 170.46 413.722 171.535 414.115 172.53C414.508 173.525 415.138 174.408 415.95 175.105C417.597 176.474 419.377 177.676 421.263 178.692C426.903 182.212 429.69 189.905 432.329 196.008C436.977 187.153 429.836 175.702 423.925 168.765C422.916 167.471 421.667 166.383 420.248 165.561C419.531 165.156 418.732 164.921 417.911 164.872C417.09 164.823 416.269 164.962 415.51 165.279" fill="#263238"/>
<path d="M432.385 240.027C432.447 239.758 432.53 239.493 432.634 239.237L433.446 237.049C434.089 235.12 435.036 232.333 435.882 228.802C438.088 219.571 438.612 210.017 437.428 200.6C436.836 195.434 435.608 190.36 433.773 185.495C432.287 181.518 429.869 177.955 426.722 175.105C424.582 173.204 422.041 171.809 419.288 171.022C417.337 170.514 416.197 170.514 416.197 170.446C416.471 170.416 416.747 170.416 417.021 170.446C417.804 170.506 418.581 170.626 419.345 170.807C422.172 171.514 424.793 172.878 426.993 174.789C430.234 177.651 432.734 181.254 434.281 185.292C436.168 190.193 437.423 195.314 438.015 200.532C439.205 209.996 438.619 219.599 436.289 228.848C435.564 231.639 434.687 234.388 433.66 237.083C433.277 238.019 432.961 238.752 432.746 239.237C432.655 239.513 432.534 239.778 432.385 240.027Z" fill="#455A64"/>
<path d="M434.292 255.256C434.245 255.179 434.211 255.096 434.191 255.008L433.943 254.252C433.678 253.279 433.516 252.281 433.458 251.274C433.378 247.529 434.251 243.826 435.996 240.512C437.992 236.214 441.636 231.904 445.133 226.839C446.992 224.217 448.48 221.351 449.555 218.322C450.618 215.05 451.025 211.599 450.751 208.169C450.491 204.73 449.543 201.377 447.965 198.31C446.419 195.482 444.524 192.859 442.324 190.503C438.196 185.991 434.044 182.133 431.325 178.264C429.054 175.304 427.452 171.886 426.633 168.246C426.34 166.914 426.252 165.544 426.373 164.185C426.428 165.534 426.591 166.877 426.858 168.201C427.75 171.778 429.387 175.127 431.664 178.027C434.394 181.817 438.534 185.562 442.73 190.142C444.963 192.522 446.885 195.176 448.45 198.039C450.063 201.174 451.033 204.598 451.304 208.113C451.581 211.627 451.163 215.161 450.074 218.514C448.978 221.59 447.459 224.498 445.562 227.155C442.008 232.243 438.365 236.496 436.345 240.692C434.588 243.934 433.669 247.564 433.672 251.251C433.739 252.604 433.947 253.946 434.292 255.256Z" fill="#263238"/>
<path d="M410.286 158.296C406.665 155.735 401.995 155.149 397.561 155.217C385.604 155.386 373.465 159.955 365.467 168.844C358.699 176.334 348.76 190.751 346.876 200.634C342.285 224.718 357.503 231.464 345.105 269.064C342.849 275.832 340.051 282.465 338.675 289.46C338.18 291.955 337.949 294.496 337.987 297.04C336.532 301.44 337.423 306.516 339.217 310.893C341.326 316.037 344.541 320.663 346.56 325.841C348.58 331.019 353.024 339.513 350.058 344.217C354.243 343.089 354.389 338.723 357.706 335.937C358.686 339.676 358.655 343.608 357.616 347.331C362.817 346.968 367.755 344.907 371.672 341.465C379.41 334.696 381.825 323.697 383.032 313.454C385.626 291.061 383.088 269.583 377.154 247.833L377.075 247.934C372.755 234.025 364.576 221.187 371.92 218.119C384.713 212.783 373.048 207.165 377.899 193.718C379.422 189.522 381.114 185.077 384.667 182.437C388.932 179.256 394.696 179.425 400.009 179.132C405.323 178.839 411.347 177.44 413.84 172.747L414.167 169.938C416.074 165.911 413.908 160.868 410.286 158.296Z" fill="#263238"/>
<path d="M352.596 247.337C352.949 247.064 353.264 246.745 353.532 246.389C354.178 245.275 354.428 243.975 354.243 242.7C353.882 239.373 352.201 234.804 350.001 229.163C348.758 226.108 347.803 222.943 347.147 219.71C346.315 215.749 346.677 211.63 348.187 207.875C349.697 204.12 352.288 200.897 355.631 198.615C359.24 196.02 364.148 195.625 367.16 192.106C370.172 188.586 371.672 184.367 372.981 180.283C373.614 178.24 374.367 176.236 375.237 174.282C376.113 172.418 377.171 170.646 378.395 168.991C380.664 165.932 383.479 163.32 386.698 161.286C388.146 160.326 389.717 159.567 391.369 159.03C392.902 158.565 394.506 158.374 396.107 158.466C398.827 158.69 401.494 159.353 404.003 160.429C406.259 161.342 408.109 162.143 409.644 162.956C410.809 163.556 411.823 164.412 412.611 165.46C412.878 165.829 413.08 166.241 413.208 166.678C412.997 166.289 412.763 165.913 412.509 165.55C411.702 164.552 410.685 163.743 409.531 163.181C408.042 162.414 406.147 161.636 403.89 160.756C401.405 159.739 398.774 159.126 396.095 158.94C394.543 158.855 392.988 159.05 391.504 159.515C389.912 160.048 388.395 160.783 386.992 161.703C382.117 164.821 378.232 169.262 375.79 174.507C374.922 176.443 374.169 178.428 373.533 180.452C372.202 184.525 370.815 189.003 367.6 192.489C366 194.171 364.03 195.458 361.846 196.246C359.785 196.966 357.813 197.92 355.969 199.088C352.56 201.429 349.946 204.755 348.478 208.621C347.182 212.141 346.873 215.948 347.587 219.631C348.224 222.841 349.153 225.987 350.362 229.028C352.506 234.668 354.141 239.282 354.435 242.689C354.605 244.006 354.305 245.34 353.589 246.457C353.385 246.729 353.142 246.968 352.867 247.168L352.596 247.337Z" fill="#455A64"/>
<path d="M371.277 219.98C370.949 215.468 365.986 212.58 362.128 214.915C360.007 216.201 358.428 218.728 358.743 223.511C359.544 236.247 372.168 232.818 372.168 232.446C372.168 232.073 371.604 225.271 371.277 219.98Z" fill="#FFBE9D"/>
<path d="M367.892 227.865C367.892 227.865 367.678 228.035 367.317 228.226C366.803 228.485 366.21 228.537 365.658 228.373C364.282 227.956 363.019 225.891 362.815 223.601C362.711 222.512 362.854 221.413 363.233 220.386C363.326 219.98 363.518 219.602 363.791 219.287C364.065 218.973 364.411 218.73 364.801 218.581C365.05 218.498 365.321 218.504 365.566 218.599C365.811 218.693 366.015 218.871 366.143 219.1C366.335 219.45 366.267 219.709 366.346 219.732C366.425 219.754 366.606 219.495 366.471 218.976C366.379 218.665 366.184 218.394 365.918 218.209C365.548 217.968 365.099 217.879 364.666 217.961C364.15 218.098 363.678 218.365 363.295 218.736C362.912 219.107 362.63 219.571 362.477 220.081C362 221.217 361.81 222.453 361.924 223.68C362.172 226.241 363.639 228.565 365.512 228.982C365.86 229.058 366.22 229.056 366.567 228.976C366.915 228.896 367.24 228.74 367.52 228.52C367.892 228.181 367.948 227.888 367.892 227.865Z" fill="#EB996E"/>
<path d="M372.767 236.552C372.767 236.552 372.857 236.8 372.767 237.251C372.585 237.889 372.186 238.444 371.639 238.819C371.221 239.093 370.746 239.265 370.25 239.322C369.755 239.379 369.253 239.319 368.784 239.146C368.212 238.939 367.692 238.611 367.258 238.185C366.824 237.759 366.486 237.244 366.269 236.676C365.89 235.66 365.795 234.561 365.994 233.496C366.193 232.431 366.678 231.44 367.397 230.629C367.667 230.276 368.007 229.982 368.395 229.765C368.783 229.548 369.211 229.412 369.653 229.366C368.918 229.754 368.26 230.274 367.713 230.9C367.16 231.601 366.775 232.419 366.585 233.291C366.356 234.345 366.439 235.442 366.822 236.45C367.004 236.946 367.289 237.397 367.658 237.774C368.028 238.152 368.473 238.446 368.965 238.639C369.359 238.798 369.784 238.866 370.208 238.837C370.633 238.807 371.045 238.682 371.413 238.469C371.909 238.163 372.302 237.715 372.541 237.183C372.688 236.8 372.71 236.552 372.767 236.552Z" fill="white"/>
<path d="M411.211 171.337C410.389 170.498 409.485 169.743 408.515 169.081C405.737 167.436 402.493 166.754 399.287 167.14C397.083 167.359 394.941 168.003 392.981 169.036C390.751 170.258 388.729 171.827 386.991 173.683C385.068 175.759 383.363 178.027 381.903 180.452C380.358 182.945 378.948 185.652 377.492 188.428C376.122 191.152 374.616 193.807 372.98 196.381C371.426 198.778 369.61 200.995 367.565 202.991C365.625 204.898 363.685 206.601 362.026 208.338C360.447 209.894 359.088 211.659 357.988 213.584C356.362 216.38 355.786 219.664 356.363 222.846C356.65 223.99 357.123 225.08 357.762 226.072C357.557 225.841 357.369 225.596 357.198 225.339C356.723 224.587 356.369 223.764 356.149 222.902C355.457 219.66 355.979 216.276 357.615 213.392C358.711 211.414 360.078 209.599 361.677 208C363.335 206.229 365.264 204.514 367.182 202.608C369.188 200.626 370.973 198.432 372.506 196.065C374.119 193.606 375.563 190.921 377.019 188.168C378.474 185.416 379.884 182.674 381.463 180.159C382.946 177.726 384.682 175.458 386.641 173.39C388.427 171.5 390.507 169.911 392.801 168.686C394.822 167.648 397.024 167.008 399.287 166.802C402.574 166.444 405.886 167.207 408.684 168.968C409.419 169.467 410.089 170.054 410.681 170.717C410.872 170.911 411.049 171.118 411.211 171.337Z" fill="#455A64"/>
<path d="M315.222 309.235L317.591 297.796L295.796 287.857L295.232 289.719C292.118 300.086 276.596 350.049 275.648 353.783C272.151 367.647 272.929 395.083 278.457 400.215C282.879 404.322 291.374 407.345 296.992 406.725C302.61 406.104 318.098 386.171 318.098 386.171L332.301 340.663L315.222 309.235Z" fill="#FFBE9D"/>
<path d="M316.181 302.433C316.177 302.729 316.143 303.024 316.079 303.313C315.966 303.944 315.831 304.779 315.651 305.839C315.256 308.096 314.68 311.22 313.992 315.079C313.304 318.937 312.469 323.63 311.736 328.819C310.938 334.425 310.5 340.077 310.428 345.74C310.377 351.415 311.017 357.074 312.334 362.594C313.564 367.659 314.692 372.329 314.59 376.357C314.608 379.518 313.799 382.629 312.244 385.381C311.686 386.397 310.944 387.3 310.055 388.044C312.926 384.827 314.406 380.605 314.173 376.3C314.24 372.352 313.045 367.749 311.815 362.673C310.467 357.115 309.808 351.413 309.852 345.695C309.919 339.996 310.375 334.309 311.217 328.672C311.95 323.472 312.819 318.824 313.575 314.932C314.331 311.04 314.974 307.96 315.414 305.727C315.639 304.678 315.82 303.854 315.944 303.222C316.008 302.955 316.087 302.691 316.181 302.433Z" fill="#EB996E"/>
<path d="M338.71 278.878L334.49 274.208V268.657L330.113 262.363L321.382 263.762L318.708 263.987L320.513 251.217C321.515 247.951 322.829 244.789 324.439 241.775C327.553 235.548 322.544 232.694 322.544 232.694L313.181 249.074L310.067 259.96L308.736 251.082C308.736 251.082 310.315 242.441 310.09 237.996C309.864 233.551 305.408 234.194 305.408 234.194L301.843 253.744V263.525L298.741 257.749C298.741 257.749 298.076 252.853 297.613 248.408C297.151 243.963 293.62 245.295 293.62 245.295V259.746L297.613 273.08C297.613 273.08 294.985 290.283 294.545 290.949L315.11 305.366C315.11 305.366 319.622 301.981 320.491 301.744C321.359 301.508 332.494 293.295 332.494 293.295L340.266 285.071C340.266 285.071 341.597 284.191 341.597 283.3C341.597 282.409 338.71 278.878 338.71 278.878ZM328.049 284.214L323.604 282.206L321.156 276.204L322.973 272.922L323.604 271.794L324.417 271.23L327.383 271.794C327.383 271.794 328.715 276.024 328.512 278.021C328.308 280.017 330.96 282.025 330.96 282.025L328.049 284.214Z" fill="#FFBE9D"/>
<path d="M324.416 271.196C324.416 271.264 324.01 271.309 323.4 271.117C322.604 270.842 321.901 270.35 321.37 269.696C320.829 269.054 320.484 268.271 320.377 267.439C320.309 266.808 320.377 266.413 320.49 266.424C320.674 267.493 321.132 268.496 321.821 269.335C322.509 270.173 323.403 270.818 324.416 271.207V271.196Z" fill="#EB996E"/>
<path d="M335.854 282.714C335.772 280.551 335.87 278.385 336.148 276.238C336.49 277.289 336.594 278.403 336.452 279.498C336.502 280.602 336.297 281.702 335.854 282.714Z" fill="#EB996E"/>
<path d="M328.997 291.118C328.997 291.118 328.433 290.757 327.801 289.9C326.934 288.754 326.531 287.324 326.673 285.895C326.74 285.458 326.927 285.047 327.214 284.711C327.474 284.429 327.744 284.169 328.004 283.932C328.464 283.53 328.946 283.154 329.448 282.804C330.305 282.195 330.914 281.924 330.959 282.015C330.569 282.419 330.15 282.796 329.707 283.143C329.312 283.481 328.861 283.887 328.376 284.361C328.139 284.598 327.891 284.857 327.654 285.128C327.441 285.388 327.301 285.699 327.248 286.031C327.158 286.726 327.231 287.433 327.462 288.095C327.63 288.661 327.868 289.203 328.173 289.708C328.669 290.543 329.076 291.062 328.997 291.118Z" fill="#EB996E"/>
<path d="M334.5 273.644C334.577 275.299 334.052 276.926 333.023 278.224C332.631 278.767 332.112 279.204 331.511 279.498C330.995 279.72 330.422 279.771 329.875 279.645C328.916 279.408 328.668 278.754 328.747 278.743C328.826 278.731 329.164 279.149 329.954 279.239C330.412 279.294 330.875 279.211 331.285 279.002C331.792 278.729 332.228 278.343 332.56 277.874C333.369 276.544 334.021 275.124 334.5 273.644Z" fill="#EB996E"/>
<path d="M328.511 277.671C328.375 277.671 328.048 275.708 327.382 273.305C327.124 272.265 326.928 271.21 326.796 270.147C326.717 269.323 326.796 268.804 326.796 268.804C326.796 268.804 326.976 269.289 327.157 270.079C327.416 271.207 327.653 272.143 327.901 273.17C328.623 275.584 328.702 277.671 328.511 277.671Z" fill="#EB996E"/>
<path d="M335.855 284.045C334.05 283.903 332.315 283.289 330.824 282.263C330.201 281.896 329.644 281.427 329.177 280.875C328.809 280.401 328.555 279.849 328.432 279.262C328.264 278.74 328.292 278.174 328.511 277.671C328.613 277.671 328.511 278.281 328.827 279.16C329.229 280.276 330.034 281.202 331.083 281.755C333.576 283.312 335.911 283.853 335.855 284.045Z" fill="#EB996E"/>
<path d="M317.535 288.986C316.191 286.74 314.535 284.696 312.616 282.917C310.558 281.285 308.279 279.952 305.848 278.957C306.63 279.01 307.395 279.209 308.104 279.544C311.665 280.954 314.649 283.521 316.576 286.831C317.031 287.481 317.357 288.213 317.535 288.986Z" fill="#EB996E"/>
<path d="M310.089 268.24C310.089 268.41 308.464 268.545 306.581 269.211C304.697 269.876 303.332 270.745 303.196 270.609C304.089 269.727 305.169 269.055 306.356 268.645C307.544 268.235 308.807 268.097 310.055 268.24H310.089Z" fill="#EB996E"/>
<path d="M339.386 422.879L327.541 452.018C327.541 452.018 268.677 430.482 234.225 436.754C221.128 439.146 207.151 468.871 226.193 487.959C244.818 506.583 278.085 532.913 340.604 541.43C342.161 541.645 367.757 547.138 366.178 546.947C364.599 546.755 402.063 552.689 402.063 552.689L410.862 519.444L480.702 530.431C521.832 527.622 541.957 483.638 517.196 469.514C494.092 456.304 450.638 455.255 450.638 455.255L439.978 426.162L339.386 422.879Z" fill="#263238"/>
<path d="M392.18 424.594C392.293 424.594 392.102 427.279 391.876 431.599C391.65 435.92 391.459 441.887 391.56 448.521C391.662 455.154 392.045 461.076 392.406 465.374C392.767 469.672 393.038 472.335 392.925 472.357C392.741 471.762 392.616 471.15 392.553 470.53C392.35 469.334 392.124 467.608 391.876 465.453C391.38 461.155 390.917 455.165 390.815 448.532C390.714 441.899 390.985 435.897 391.346 431.61C391.526 429.445 391.707 427.707 391.865 426.512C391.905 425.863 392.01 425.221 392.18 424.594Z" fill="#455A64"/>
<path d="M398.735 436.033C398.735 436.101 398.487 436.27 398.126 436.687C397.622 437.296 397.301 438.035 397.201 438.819C397.118 439.38 397.155 439.951 397.311 440.496C397.467 441.041 397.737 441.546 398.103 441.978C398.606 442.425 399.221 442.728 399.882 442.853C400.543 442.979 401.226 442.923 401.858 442.692C402.49 442.46 403.047 442.062 403.47 441.539C403.894 441.016 404.168 440.388 404.263 439.722C404.258 439.155 404.133 438.595 403.896 438.079C403.658 437.564 403.314 437.105 402.886 436.732C402.301 436.202 401.577 435.85 400.799 435.717C400.247 435.638 399.919 435.717 399.908 435.627C399.897 435.537 400.213 435.435 400.822 435.424C401.699 435.459 402.541 435.776 403.225 436.326C403.746 436.726 404.172 437.238 404.471 437.823C404.769 438.409 404.933 439.054 404.951 439.711C404.874 440.526 404.569 441.304 404.07 441.954C403.571 442.604 402.899 443.101 402.131 443.386C401.362 443.671 400.529 443.733 399.727 443.566C398.925 443.399 398.186 443.009 397.596 442.441C397.175 441.93 396.874 441.331 396.716 440.689C396.558 440.047 396.546 439.377 396.682 438.729C396.835 437.863 397.267 437.071 397.911 436.473C398.137 436.248 398.423 436.095 398.735 436.033Z" fill="#455A64"/>
<path d="M449.589 350.58C449.33 352.227 448.461 396.831 451.123 400.881C455.309 407.311 468.801 418.818 477.194 415.671C490.81 410.56 493.889 381.76 493.641 387.107L482.868 296.104H462.122L460.396 328.74L454.35 332.44C453.938 336.235 453.164 339.983 452.037 343.631L449.589 350.58Z" fill="#FFBE9D"/>
<path d="M462.122 296.104C462.122 296.104 453.842 287.914 453.842 286.097C453.842 284.281 450.604 283.266 450.604 283.266L445.348 280.649C445.348 280.649 441.963 277.411 442.73 275.595C443.166 274.541 443.967 273.68 444.987 273.169C444.987 273.169 445.246 268.725 448.551 267.529C448.551 267.529 445.449 264.145 448.551 261.674C451.654 259.204 452.398 260.253 452.398 260.253C452.398 260.253 452.06 257.624 453.876 257.433C455.692 257.241 468.688 253.992 468.688 253.992C470.549 254.927 472.291 256.082 473.877 257.433C475.49 259.046 476.302 260.05 476.302 260.05C477.728 258.235 478.823 256.185 479.54 253.992C480.341 250.957 481.559 241.865 490.652 242.271V244.527C488.864 247.222 487.626 250.243 487.008 253.417C485.801 259.057 483.624 271.59 483.624 271.59L482.947 296.16L462.122 296.104Z" fill="#FFBE9D"/>
<path d="M454.135 386.882C454.05 386.582 453.99 386.277 453.955 385.968C453.864 385.359 453.695 384.479 453.605 383.317C453.272 380.052 453.223 376.764 453.458 373.491C453.818 368.639 454.47 363.814 455.41 359.04C456.391 353.648 457.722 347.759 458.715 341.532C460.655 329.044 460.904 317.572 461.22 309.291C461.366 305.196 461.49 301.857 461.569 299.488L461.705 296.815C461.703 296.504 461.733 296.194 461.795 295.89C461.812 296.202 461.812 296.514 461.795 296.826C461.795 297.492 461.795 298.371 461.795 299.488C461.795 301.869 461.705 305.208 461.637 309.303C461.561 320.116 460.769 330.913 459.268 341.623C458.264 347.883 456.91 353.761 455.884 359.142C454.924 363.889 454.234 368.688 453.819 373.514C453.565 376.769 453.565 380.039 453.819 383.294C453.876 384.422 454.011 385.347 454.067 385.957C454.118 386.262 454.14 386.572 454.135 386.882Z" fill="#EB996E"/>
<path d="M468.609 258.911C468.609 258.99 467.707 258.967 466.263 259.159C464.819 259.351 462.811 259.554 460.622 259.757C457.93 260.115 455.216 260.277 452.5 260.242C455.141 259.702 457.818 259.359 460.509 259.215C462.766 259.012 464.74 258.866 466.15 258.787C466.968 258.634 467.811 258.677 468.609 258.911Z" fill="#EB996E"/>
<path d="M464.795 268.612C464.012 268.662 463.226 268.636 462.449 268.533C461.016 268.443 459.064 268.409 456.808 268.353C454.921 268.337 453.037 268.198 451.168 267.935C450.389 267.867 449.627 267.673 448.912 267.36C449.693 267.345 450.474 267.398 451.247 267.518C452.679 267.642 454.631 267.721 456.887 267.766C459.143 267.811 461.106 267.924 462.528 268.116C463.304 268.169 464.068 268.336 464.795 268.612Z" fill="#EB996E"/>
<path d="M461.806 276.453C461 276.456 460.197 276.362 459.415 276.171C457.948 275.922 455.94 275.539 453.718 275.043C451.495 274.546 449.499 274.14 448.077 273.79C447.281 273.656 446.505 273.425 445.765 273.102C446.574 273.098 447.381 273.192 448.167 273.384C449.623 273.632 451.642 274.016 453.808 274.512C455.974 275.009 458.016 275.415 459.448 275.776C460.259 275.903 461.051 276.13 461.806 276.453Z" fill="#EB996E"/>
</g>
</g>
<defs>
<filter id="filter0_di" x="233.693" y="231.332" width="311.6" height="309.724" filterUnits="userSpaceOnUse" color-interpolation-filters="sRGB">
<feFlood flood-opacity="0" result="BackgroundImageFix"/>
<feColorMatrix in="SourceAlpha" type="matrix" values="0 0 0 0 0 0 0 0 0 0 0 0 0 0 0 0 0 0 127 0"/>
<feOffset dy="40"/>
<feGaussianBlur stdDeviation="26"/>
<feColorMatrix type="matrix" values="0 0 0 0 0.236667 0 0 0 0 0.267433 0 0 0 0 0.295833 0 0 0 0.2 0"/>
<feBlend mode="normal" in2="BackgroundImageFix" result="effect1_dropShadow"/>
<feBlend mode="normal" in="SourceGraphic" in2="effect1_dropShadow" result="shape"/>
<feColorMatrix in="SourceAlpha" type="matrix" values="0 0 0 0 0 0 0 0 0 0 0 0 0 0 0 0 0 0 127 0" result="hardAlpha"/>
<feOffset dx="4" dy="4"/>
<feGaussianBlur stdDeviation="2"/>
<feComposite in2="hardAlpha" operator="arithmetic" k2="-1" k3="1"/>
<feColorMatrix type="matrix" values="0 0 0 0 1 0 0 0 0 1 0 0 0 0 1 0 0 0 0.25 0"/>
<feBlend mode="normal" in2="shape" result="effect2_innerShadow"/>
</filter>
<filter id="filter1_d" x="242.23" y="135.211" width="281.656" height="342.108" filterUnits="userSpaceOnUse" color-interpolation-filters="sRGB">
<feFlood flood-opacity="0" result="BackgroundImageFix"/>
<feColorMatrix in="SourceAlpha" type="matrix" values="0 0 0 0 0 0 0 0 0 0 0 0 0 0 0 0 0 0 127 0"/>
<feOffset dy="4"/>
<feGaussianBlur stdDeviation="12"/>
<feColorMatrix type="matrix" values="0 0 0 0 0 0 0 0 0 0 0 0 0 0 0 0 0 0 0.12 0"/>
<feBlend mode="normal" in2="BackgroundImageFix" result="effect1_dropShadow"/>
<feBlend mode="normal" in="SourceGraphic" in2="effect1_dropShadow" result="shape"/>
</filter>
<linearGradient id="paint0_linear" x1="311.643" y1="278.477" x2="468.325" y2="410.597" gradientUnits="userSpaceOnUse">
<stop stop-color="#CECECE"/>
<stop offset="1" stop-color="white"/>
</linearGradient>
</defs>
</svg>
