<svg xmlns="http://www.w3.org/2000/svg" width="1280" height="800" fill="none" viewBox="0 0 1280 800">
    <g clip-path="url(#clip0)">
        <path fill="#349A46" d="M0 0H1280V800H0z"/>
        <circle cx="949.5" cy="351.5" r="387.5" fill="#399F4B"/>
        <circle cx="949.5" cy="351.5" r="237.5" fill="#3EAC51"/>
        <ellipse cx="953" cy="348.5" fill="#3EAC51" rx="191" ry="189.5"/>
        <path stroke="#37A349" stroke-width="2" d="M1080 349c0 69.581-56.85 126-127 126-70.148 0-127-56.419-127-126 0-69.58 56.852-126 127-126 70.15 0 127 56.42 127 126z"/>
        <g filter="url(#filter0_di)">
            <ellipse cx="951.493" cy="346.194" fill="url(#paint0_linear)" rx="103.8" ry="102.862"/>
        </g>
        <g filter="url(#filter1_d)">
            <mask id="wty3mu7k5a" width="234" height="318" x="828" y="132" maskUnits="userSpaceOnUse">
                <path fill="#399F4B" d="M1059.21 392.675c0 35-21.56 19.699-48.51 38.279-16.79 11.578-37.198 18.365-59.206 18.365-22.008 0-42.417-6.787-59.21-18.365-26.95-18.58-62.64-3.279-62.64-38.279 0-31.417-9.286-91.429 19.743-153.42 23.462-50.101 82.673-107.169 108.296-107.169 41.589 0 85.617 28.847 101.527 109.425 6.02 30.493 0 135.568 0 151.164z"/>
            </mask>
            <g mask="url(#wty3mu7k5a)">
                <path fill="#263238" d="M999.587 229.027c-2.967 7.389-2.877 22.664 2.053 28.902 2.57 3.26 6.07 5.866 7.9 9.6 2.39 4.896 1.36 10.988-1.64 15.534-3 4.546-7.73 7.727-12.702 9.961-5.539 2.504-12.318 3.881-17.485.677-3.948-2.437-6.035-7.006-7.299-11.473-3.542-12.499-2.256-25.946 1.422-38.445 3.677-12.5 9.667-24.153 15.59-35.682"/>
                <path fill="#349A47" d="M1016.03 332.62l26.45-16.143s-20.08-38.682-23.11-40.081c-3.02-1.399-43.552-7.366-43.552-7.366-12.33 19.38-27.762 14.597-43.319 1.669-1.387.282-25.867 5.855-32.263 6.69-6.396.835-24.818 30.188-24.818 30.188l20.892 36.539 1.58 37.858s1.128 26.928-3.283 40.826l110.873 3.599c-1.22-5.774-2.07-11.617-2.55-17.497-.42-4.704-1.7-9.397-.74-15.444 3.04-19.2 13.84-60.838 13.84-60.838z"/>
                <path fill="#FAFAFA" d="M888.402 288.828c1.67 5.572 15.794 13.83 20.757 10.739 1.568-.981 2.922-2.448 4.738-2.798 2.256-.451 4.434.993 6.633 1.726 5.167 1.704 11.789-.203 15.512 3.757 1.839 1.951 3 5.268 5.64 5.189.95-.158 1.88-.415 2.775-.767 2.99-.745 5.889 1.545 8.969 1.76 1.614.015 3.218-.257 4.738-.801l22.11-6.475c1.602-.474 3.385-1.129 4.073-2.64-2.65.832-5.507.712-8.077-.339-1.368-.755-2.808-1.371-4.299-1.838-3.903-.801-7.456 2.256-11.337 3.215-4.084.959-8.291-.564-12.206-2.076l-20.046-7.705c-5.528-2.121-11.191-4.332-15.579-8.291-1.399-1.253-6.644 1.387-8.28.485-1.903-1.287-3.719-2.696-5.438-4.219-.338-.249-3.384 2.493-4.726 3.937-1.343 1.444-5.957 7.141-5.957 7.141zM897.945 381.975c4.918-2.076 13.356-5.347 18.602-6.329 3.863-.842 7.838-1.04 11.766-.586 1.951.282 3.971.812 5.866.248 1.895-.564 3.17-1.941 4.839-2.764 4.795-2.358 10.526.575 15.794-.113 1.332-.09 2.583-.673 3.508-1.636.437-.495.672-1.135.659-1.795-.012-.66-.272-1.291-.727-1.769-.624-.44-1.368-.676-2.132-.677-2.525-.173-5.06-.143-7.58.09l-4.073.259c-1.689.203-3.4.127-5.065-.225-1.59-.571-3.132-1.265-4.614-2.076-5.437-2.391-11.676-1.32-17.553-.496-2.914.571-5.908.601-8.833.09-.973-.321-1.988-.496-3.012-.519-1.726.102-3.181 1.376-4.885 1.658-1.703.282-1.805-2.978-3.384-3.384l.824 20.024zM1005.82 331.244c-.6.395-1.27.681-1.97.846-3.19.44-5.155-5.178-8.212-4.151-1.128.395-1.952 1.76-3.204 1.906-1.252.147-2.403-1.263-3.689-1.838-2.256-1.016-4.806.812-7.31 1.015-2.82.214-6.114-1.546-8.224.35-.823.733-1.297 1.963-2.369 2.256-1.071.293-1.985-.44-2.989-.745-3.069-.913-5.878 2.042-9.025 2.584-3.587.62-7.897-1.805-10.593.598-.97.846-1.557 2.256-2.797 2.583-1.241.327-2.347-.384-3.543-.395-2.752 0-5.279 3.633-7.603 2.143.196.643.584 1.209 1.113 1.623.529.413 1.172.654 1.843.69 1.336.055 2.674-.059 3.982-.338 7.795-.959 15.714 4.117 23.272 1.985 2.087-.587 4.039-1.715 6.194-1.873 4.038-.293 7.693 2.843 11.732 2.697 3.147-.125 6.069-2.257 9.205-1.873 3.136.383 5.55 3.192 8.487 4.58 3.5 1.67 7.61 1.184 11.47.666l1.13-.26c1.81-4.963 3.11-10.101 3.87-15.331-1.7-.78-3.55-1.161-5.42-1.112-1.86.049-3.69.526-5.35 1.394zM996.744 398.761c-1.534.166-2.991.756-4.208 1.703-1.217.954-2.719 1.471-4.264 1.467-2.776-.294-5.257-3.7-7.683-2.324-.607.466-1.177.979-1.703 1.534-1.692 1.388-4.388 1.004-6.002 2.482-.834.756-1.286 1.951-2.312 2.437-1.929.902-3.757-1.332-5.708-2.2-3.046-1.365-6.509.756-9.849.688-1.692 0-3.485-.621-5.02.079-.792.475-1.546 1.011-2.256 1.602-2.549 1.703-5.979.913-8.833-.226s-5.832-2.572-8.844-1.974c-.835.169-1.782.688-1.76 1.545.024.331.141.648.339.914 1.782 2.933 5.189 4.445 8.494 5.404 3.621 1.049 7.446 1.658 10.672 3.621 2.042 1.23 4.185 3.068 6.486 2.437 1.828-.497 2.945-2.392 4.705-3.069 2.481-.959 5.426.779 7.896-.248.824-.338 1.512-.97 2.347-1.275 2.177-.789 4.602.801 6.858.294.769-.307 1.572-.519 2.392-.632 2.155 0 3.554 2.967 5.64 2.685 1.309-.181 2.2-1.568 3.509-1.805 1.726-.327 3.677 1.421 5.076.361.316-.237.564-.621.97-.655.407-.033.892.553 1.219 1.004 1.523 2.008 6.175.711 8.515-.203l-1.52-13.537c.08-1.714-3.611-2.109-5.156-2.109z"/>
                <path fill="#000" d="M901.691 289.301c-2.098 6.634-2.921 13.898-.834 20.532 1.11 3.023 2.402 5.977 3.869 8.844 4.574 10.05 6.515 21.098 5.641 32.105-.084.381-.036.779.135 1.129.44.733 1.557.462 2.335.112l4.997-2.256c2.166 1.76 2.494 5.246 4.885 6.667 2.392 1.422 5.72-.169 8.111-1.906 5.246-3.847 10.221-8.314 13.267-14.068 1.928-4.03 3.356-8.28 4.252-12.657.937-3.824 1.884-7.648 2.471-11.54 2.288-15.431-1.06-31.17-9.431-44.334" opacity=".3"/>
                <path fill="#263238" d="M1007.63 295.213c.11.183.19.38.24.587.16.462.36 1.026.6 1.725.5 1.58 1.2 3.746 2.06 6.374.86 2.629 1.87 5.934 3 9.476 1.27 3.872 2.22 7.841 2.84 11.868.49 4.066.28 8.184-.59 12.183-.7 3.254-1.65 6.448-2.85 9.555-.99 2.651-1.89 4.761-2.52 6.216l-.75 1.658c-.07.201-.18.39-.3.564.03-.211.1-.416.19-.609l.64-1.703c.58-1.478 1.41-3.61 2.36-6.261 1.12-3.107 2.02-6.288 2.7-9.521.83-3.949 1.01-8.007.54-12.015-.62-3.992-1.54-7.931-2.78-11.777-1.13-3.565-2.05-6.768-2.87-9.51-.83-2.741-1.43-4.828-1.89-6.43l-.5-1.76c-.07-.2-.11-.408-.12-.62z"/>
                <path fill="#000" d="M1017.39 328.605c1.59-5.449 1.39-11.263-.55-16.594-1.95-5.293-4.58-10.305-7.84-14.903 1.55 10.672 6.44 20.712 7.41 31.463M927.321 396.956c4.767-6.379 11.161-11.359 18.512-14.417 7.326-3.034 15.03-5.057 22.901-6.013 3.102-.451 6.475-.767 9.194.801 2.718 1.568 4.004 5.821 1.635 7.896-1.303.911-2.866 1.378-4.456 1.332-10.852.789-22.313.823-31.699 6.351-3.712 2.177-7.006 5.178-11.101 6.498-1.861.597-4.613.259-4.805-1.681" opacity=".3"/>
                <path fill="#263238" d="M982.643 375.071c-.218.023-.437.023-.655 0h-3.237l-1.602.101c-1.128.09-2.471.135-3.915.35l-2.256.282c-.79.113-1.591.282-2.437.428-1.692.271-3.463.734-5.336 1.129-4.027 1.088-7.974 2.456-11.811 4.095-3.827 1.672-7.545 3.582-11.134 5.719-1.647 1.004-3.215 1.952-4.614 2.933-1.399.981-2.73 1.861-3.914 2.719-1.185.857-2.257 1.669-3.136 2.369-.88.699-1.704 1.331-2.324 1.85l-1.467 1.128c-.164.146-.346.271-.541.372.139-.169.293-.323.462-.462l1.388-1.264c.609-.553 1.365-1.207 2.256-1.929.891-.722 1.906-1.59 3.091-2.448 1.184-.857 2.448-1.85 3.881-2.797 1.432-.948 2.978-1.963 4.613-2.99 3.595-2.177 7.33-4.114 11.18-5.798 3.863-1.655 7.845-3.016 11.913-4.073 1.895-.428 3.677-.891 5.381-1.128.857-.135 1.669-.304 2.459-.406l2.256-.237c1.455-.192 2.775-.214 3.937-.271.587 0 1.128-.056 1.624-.056h1.365l1.884.068c.246.065.479.172.689.316z"/>
                <path fill="#000" d="M891.142 314.989c-2.876 3.982-3.203 9.352-2.019 14.112 1.185 4.761 3.7 9.025 6.205 13.289.338-4.229.011-8.484-.97-12.612-1.185-4.941-3.306-9.746-3.294-14.834" opacity=".3"/>
                <path fill="#263238" d="M971.498 162.459c.067-3.599 4.173-6.148 7.727-5.539 3.553.609 6.329 3.485 7.987 6.678 1.658 3.193 2.459 6.769 3.711 10.153 3.385 9.025 10.027 16.797 12.407 26.183 1.54 6.663 1.33 13.612-.61 20.17-1.93 6.514-4.587 12.788-7.927 18.704-2.084 3.552-3.839 7.287-5.246 11.157-1.411 3.903-1.541 8.155-.372 12.138.253.503.31 1.082.158 1.625-.35.767-1.444.8-2.256.586-4.141-1.06-7.006-5.133-7.717-9.352-.71-4.219.373-8.528 1.884-12.533 1.512-4.005 3.452-7.896 4.569-11.969 2.437-9.025.745-18.591.316-27.943-.237-5.268-.068-10.593-1.128-15.793-1.061-5.201-3.509-10.311-7.897-13.255-1.703-1.128-3.666-1.963-5.099-3.384-1.433-1.422-2.154-3.96-.857-5.562"/>
                <path fill="#FFBE9D" d="M975.208 267.09s-.124-5.46-.124-5.404c0 .057 16.166-3.079 19.02-24.321 1.421-10.559.485-27.808-.734-41.886-1.128-12.68-9.882-28.067-22.505-26.432l-39.269 10.92c-3.824.497-5.088 3.779-4.918 7.649l-.282 1.816 3.271 60.567 1.128 10.153c.575 11.518 10.582 23.69 22.923 24.006 11.913.587 21.648-4.321 21.49-17.068z"/>
                <path fill="#263238" d="M986.151 209.139c.021.708-.234 1.397-.712 1.919-.479.523-1.142.838-1.849.879-.345.036-.693.002-1.024-.099-.332-.101-.639-.267-.905-.489-.266-.222-.485-.495-.644-.803-.159-.308-.255-.644-.281-.989-.022-.707.232-1.394.708-1.916.475-.522 1.136-.838 1.841-.882.345-.036.694-.002 1.026.099.332.101.64.267.907.489.267.221.487.494.647.802.16.308.257.644.286.99zM989.683 205.123c-.328.361-2.414-1.128-5.336-1.038-2.922.09-5.032 1.591-5.347 1.241-.17-.158.158-.801 1.128-1.512 1.246-.9 2.738-1.396 4.275-1.421 1.516-.043 3.007.399 4.253 1.264.914.665 1.241 1.308 1.027 1.466zM961.31 210.606c-.327.361-2.425-1.128-5.347-1.027-2.922.102-5.02 1.579-5.347 1.23-.158-.147.169-.801 1.128-1.501 1.245-.903 2.738-1.403 4.276-1.432 1.52-.038 3.014.408 4.264 1.275.868.643 1.196 1.274 1.026 1.455zM972.253 227.177c0-.169 1.794-.53 4.727-.97.744-.101 1.444-.259 1.556-.778.046-.773-.147-1.541-.552-2.2l-2.336-5.64c-3.248-8.021-5.64-14.666-5.302-14.745.339-.078 3.227 6.261 6.476 14.282.752 1.978 1.504 3.858 2.256 5.641.492.885.656 1.916.462 2.91-.104.266-.267.506-.475.701-.209.195-.459.341-.732.427-.411.12-.835.189-1.263.203-2.967.271-4.806.327-4.817.169z"/>
                <path fill="#EB996E" d="M975.084 261.686c-9.961.386-19.834-2-28.519-6.893 0 0 7.502 14.778 28.643 12.296l-.124-5.403z"/>
                <path fill="#263238" d="M961.198 203.194c-.327.778-3.215.226-6.667.417-3.452.192-6.272.971-6.679.226-.18-.35.339-1.072 1.512-1.771 1.539-.858 3.259-1.342 5.02-1.41 1.764-.11 3.529.208 5.144.925 1.23.587 1.816 1.241 1.67 1.613zM989.287 196.11c-.586.677-2.989 0-5.843.09-2.854.091-5.28.564-5.855-.112-.248-.339.113-1.004 1.128-1.659 1.441-.799 3.062-1.218 4.71-1.218 1.648 0 3.269.419 4.71 1.218 1.06.677 1.41 1.354 1.15 1.681z"/>
                <path fill="#EB996E" d="M970.077 233.303c-.438-.551-.991-1-1.62-1.316-.63-.316-1.32-.49-2.024-.511-.799.025-1.584.216-2.305.562-.72.346-1.361.838-1.88 1.446l-.079.067-.147.158c-.407.434-.66.988-.722 1.58-.009.663.145 1.318.448 1.908.303.59.746 1.096 1.289 1.476.841.64 1.859 1.005 2.915 1.046 1.056.04 2.098-.246 2.985-.821.863-.615 1.461-1.534 1.672-2.573.212-1.038.022-2.118-.532-3.022z"/>
                <path fill="#263238" d="M962.494 230.472c.17 0 .305.677.768 1.635.594 1.231 1.525 2.268 2.684 2.99 1.185.681 2.54 1.006 3.904.936 1.06 0 1.726-.248 1.805-.09.079.158-.531.609-1.704.88-1.569.324-3.202.05-4.58-.767-1.376-.82-2.391-2.13-2.843-3.667-.327-1.162-.169-1.917-.034-1.917zM975.694 169.396c-.116 1.064.029 2.139.422 3.134.393.995 1.023 1.878 1.835 2.575 1.647 1.369 3.427 2.571 5.313 3.587 5.64 3.52 8.427 11.213 11.066 17.316 4.648-8.855-2.493-20.306-8.404-27.243-1.009-1.294-2.258-2.382-3.677-3.204-.717-.405-1.516-.64-2.337-.689-.821-.049-1.642.09-2.401.407"/>
                <path fill="#455A64" d="M994.385 240.027c.062-.269.145-.534.249-.79l.812-2.188c.643-1.929 1.59-4.716 2.436-8.247 2.208-9.231 2.728-18.785 1.546-28.202-.592-5.166-1.82-10.24-3.655-15.105-1.486-3.977-3.904-7.54-7.051-10.39-2.14-1.901-4.681-3.296-7.434-4.083-1.951-.508-3.091-.508-3.091-.576.274-.03.55-.03.824 0 .783.06 1.56.18 2.324.361 2.827.707 5.448 2.071 7.648 3.982 3.241 2.862 5.741 6.465 7.288 10.503 1.887 4.901 3.142 10.022 3.729 15.24 1.19 9.464.61 19.067-1.721 28.316-.725 2.791-1.602 5.54-2.629 8.235-.383.936-.699 1.669-.914 2.154-.091.276-.212.541-.361.79z"/>
                <path fill="#263238" d="M996.292 255.256c-.047-.077-.081-.16-.101-.248l-.248-.756c-.265-.973-.427-1.971-.485-2.978-.08-3.745.793-7.448 2.538-10.762 1.996-4.298 5.644-8.608 9.134-13.673 1.86-2.622 3.35-5.488 4.43-8.517 1.06-3.272 1.46-6.723 1.19-10.153-.26-3.439-1.21-6.792-2.79-9.859-1.54-2.828-3.44-5.451-5.64-7.807-4.12-4.512-8.276-8.37-10.995-12.239-2.271-2.96-3.873-6.378-4.692-10.018-.293-1.332-.381-2.702-.26-4.061.055 1.349.218 2.692.485 4.016.892 3.577 2.529 6.926 4.806 9.826 2.73 3.79 6.866 7.535 11.066 12.115 2.23 2.38 4.15 5.034 5.72 7.897 1.61 3.135 2.58 6.559 2.85 10.074.28 3.514-.14 7.048-1.23 10.401-1.09 3.076-2.61 5.984-4.51 8.641-3.55 5.088-7.2 9.341-9.215 13.537-1.757 3.242-2.676 6.872-2.673 10.559.067 1.353.275 2.695.62 4.005zM972.287 158.296c-3.621-2.561-8.292-3.147-12.725-3.079-11.958.169-24.096 4.738-32.094 13.627-6.769 7.49-16.707 21.907-18.591 31.79-4.592 24.084 10.626 30.83-1.771 68.43-2.257 6.768-5.054 13.401-6.43 20.396-.496 2.495-.726 5.036-.689 7.58-1.455 4.4-.564 9.476 1.23 13.853 2.11 5.144 5.325 9.77 7.344 14.948 2.019 5.178 6.464 13.672 3.497 18.376 4.185-1.128 4.332-5.494 7.648-8.28.981 3.739.95 7.671-.09 11.394 5.202-.363 10.14-2.424 14.056-5.866 7.739-6.769 10.153-17.768 11.36-28.011 2.595-22.393.057-43.871-5.877-65.621l-.079.101c-4.321-13.909-12.499-26.747-5.156-29.815 12.793-5.336 1.129-10.954 5.979-24.401 1.523-4.196 3.215-8.641 6.769-11.281 4.264-3.181 10.029-3.012 15.342-3.305 5.313-.293 11.337-1.692 13.83-6.385l.328-2.809c1.906-4.027-.26-9.07-3.881-11.642z"/>
                <path fill="#455A64" d="M914.596 247.337c.353-.273.668-.592.937-.948.645-1.114.896-2.414.71-3.689-.361-3.327-2.041-7.896-4.241-13.537-1.243-3.055-2.199-6.22-2.854-9.453-.832-3.961-.47-8.08 1.04-11.835 1.51-3.755 4.1-6.978 7.443-9.26 3.61-2.595 8.517-2.99 11.529-6.509 3.012-3.52 4.512-7.739 5.821-11.823.633-2.043 1.387-4.047 2.256-6.001.876-1.864 1.934-3.636 3.159-5.291 2.268-3.059 5.083-5.671 8.303-7.705 1.447-.96 3.018-1.719 4.67-2.256 1.534-.465 3.138-.656 4.738-.564 2.721.224 5.388.887 7.897 1.963 2.256.913 4.106 1.714 5.64 2.527 1.166.6 2.18 1.456 2.967 2.504.267.369.469.781.598 1.218-.212-.389-.445-.765-.7-1.128-.807-.998-1.823-1.807-2.978-2.369-1.489-.767-3.384-1.545-5.64-2.425-2.485-1.017-5.117-1.63-7.795-1.816-1.553-.085-3.108.11-4.592.575-1.592.533-3.108 1.268-4.512 2.188-4.874 3.118-8.76 7.559-11.202 12.804-.867 1.936-1.621 3.921-2.256 5.945-1.331 4.073-2.719 8.551-5.934 12.037-1.6 1.682-3.57 2.969-5.753 3.757-2.061.72-4.033 1.674-5.878 2.842-3.409 2.341-6.022 5.667-7.49 9.533-1.297 3.52-1.605 7.327-.891 11.01.636 3.21 1.565 6.356 2.775 9.397 2.143 5.64 3.779 10.254 4.072 13.661.17 1.317-.129 2.651-.846 3.768-.203.272-.447.511-.722.711l-.271.169z"/>
                <path fill="#FFBE9D" d="M933.277 219.98c-.328-4.512-5.291-7.4-9.149-5.065-2.121 1.286-3.7 3.813-3.385 8.596.801 12.736 13.425 9.307 13.425 8.935 0-.373-.564-7.175-.891-12.466z"/>
                <path fill="#EB996E" d="M929.892 227.865s-.214.17-.575.361c-.514.259-1.107.311-1.658.147-1.377-.417-2.64-2.482-2.843-4.772-.104-1.089.039-2.188.417-3.215.093-.406.285-.784.559-1.099.273-.314.62-.557 1.009-.706.25-.083.52-.077.765.018.245.094.45.272.578.501.192.35.124.609.203.632.079.022.259-.237.124-.756-.091-.311-.286-.582-.553-.767-.37-.241-.818-.33-1.252-.248-.515.137-.987.404-1.37.775-.383.371-.665.835-.818 1.345-.477 1.136-.667 2.372-.553 3.599.248 2.561 1.714 4.885 3.587 5.302.348.076.709.074 1.056-.006.347-.08.672-.236.952-.456.372-.339.429-.632.372-.655z"/>
                <path fill="#fff" d="M934.767 236.552s.09.248 0 .699c-.182.638-.581 1.193-1.128 1.568-.418.274-.893.446-1.389.503-.495.057-.997-.003-1.466-.176-.572-.207-1.092-.535-1.526-.961-.434-.426-.772-.941-.989-1.509-.379-1.016-.474-2.115-.275-3.18.199-1.065.684-2.056 1.403-2.867.27-.353.61-.647.998-.864.388-.217.816-.353 1.258-.399-.735.388-1.393.908-1.94 1.534-.553.701-.938 1.519-1.128 2.391-.229 1.054-.146 2.151.237 3.159.182.496.467.947.836 1.324.37.378.815.672 1.307.865.394.159.819.227 1.243.198.425-.03.837-.155 1.205-.368.496-.306.889-.754 1.128-1.286.147-.383.169-.631.226-.631z"/>
                <path fill="#455A64" d="M973.212 171.337c-.823-.839-1.726-1.594-2.696-2.256-2.778-1.645-6.022-2.327-9.228-1.941-2.204.219-4.346.863-6.306 1.896-2.23 1.222-4.252 2.791-5.99 4.647-1.923 2.076-3.628 4.344-5.088 6.769-1.545 2.493-2.955 5.2-4.411 7.976-1.37 2.724-2.876 5.379-4.512 7.953-1.554 2.397-3.37 4.614-5.415 6.61-1.94 1.907-3.88 3.61-5.539 5.347-1.579 1.556-2.938 3.321-4.038 5.246-1.626 2.796-2.202 6.08-1.625 9.262.287 1.144.76 2.234 1.399 3.226-.205-.231-.393-.476-.564-.733-.475-.752-.829-1.575-1.049-2.437-.692-3.242-.17-6.626 1.466-9.51 1.096-1.978 2.463-3.793 4.062-5.392 1.658-1.771 3.587-3.486 5.505-5.392 2.006-1.982 3.791-4.176 5.324-6.543 1.613-2.459 3.057-5.144 4.513-7.897 1.455-2.752 2.865-5.494 4.444-8.009 1.483-2.433 3.219-4.701 5.178-6.769 1.786-1.89 3.866-3.479 6.16-4.704 2.021-1.038 4.223-1.678 6.486-1.884 3.287-.358 6.599.405 9.397 2.166.735.499 1.405 1.086 1.997 1.749.191.194.368.401.53.62z"/>
                <path fill="#FFBE9D" d="M877.222 309.235l2.369-11.439-21.795-9.939-.564 1.862c-3.114 10.367-18.636 60.33-19.584 64.064-3.497 13.864-2.719 41.3 2.809 46.432 4.422 4.107 12.917 7.13 18.535 6.51 5.618-.621 21.106-20.554 21.106-20.554l14.203-45.508-17.079-31.428z"/>
                <path fill="#EB996E" d="M878.181 302.433c-.003.296-.037.591-.101.88-.113.631-.248 1.466-.429 2.526-.395 2.257-.97 5.381-1.658 9.24-.688 3.858-1.523 8.551-2.256 13.74-.799 5.606-1.236 11.258-1.309 16.921-.051 5.675.59 11.334 1.906 16.854 1.23 5.065 2.358 9.735 2.257 13.763.018 3.161-.791 6.272-2.347 9.024-.558 1.016-1.3 1.919-2.188 2.663 2.87-3.217 4.351-7.439 4.117-11.744.068-3.948-1.128-8.551-2.357-13.627-1.349-5.558-2.008-11.26-1.963-16.978.066-5.699.522-11.386 1.365-17.023.733-5.2 1.602-9.848 2.357-13.74.756-3.892 1.399-6.972 1.839-9.205.226-1.049.406-1.873.53-2.505.065-.267.144-.531.237-.789z"/>
                <path fill="#FFBE9D" d="M900.71 278.878l-4.219-4.67v-5.551l-4.377-6.294-8.732 1.399-2.673.225 1.805-12.77c1.001-3.266 2.316-6.428 3.926-9.442 3.113-6.227-1.896-9.081-1.896-9.081l-9.363 16.38-3.113 10.886-1.331-8.878s1.579-8.641 1.353-13.086c-.225-4.445-4.681-3.802-4.681-3.802l-3.565 19.55v9.781l-3.102-5.776s-.666-4.896-1.128-9.341c-.463-4.445-3.994-3.113-3.994-3.113v14.451l3.994 13.334s-2.629 17.203-3.069 17.869l20.565 14.417s4.513-3.385 5.381-3.622c.869-.236 12.003-8.449 12.003-8.449l7.773-8.224s1.331-.88 1.331-1.771c0-.891-2.888-4.422-2.888-4.422zm-10.66 5.336l-4.445-2.008-2.448-6.002 1.816-3.282.632-1.128.812-.564 2.967.564s1.331 4.23 1.128 6.227c-.203 1.996 2.448 4.004 2.448 4.004l-2.91 2.189z"/>
                <path fill="#EB996E" d="M886.416 271.196c0 .068-.406.113-1.015-.079-.796-.275-1.5-.767-2.031-1.421-.54-.642-.885-1.425-.992-2.257-.068-.631 0-1.026.112-1.015.184 1.069.643 2.072 1.331 2.911.688.838 1.583 1.483 2.595 1.872v-.011zM897.854 282.714c-.082-2.163.016-4.329.294-6.476.342 1.051.446 2.165.304 3.26.05 1.104-.155 2.204-.598 3.216zM890.997 291.118s-.564-.361-1.196-1.218c-.866-1.146-1.269-2.576-1.128-4.005.067-.437.255-.848.542-1.184.259-.282.53-.542.789-.779.461-.402.943-.778 1.444-1.128.858-.609 1.467-.88 1.512-.789-.391.404-.809.781-1.252 1.128-.395.338-.846.744-1.331 1.218-.237.237-.485.496-.722.767-.213.26-.353.571-.407.903-.089.695-.016 1.402.215 2.064.167.566.406 1.108.711 1.613.496.835.902 1.354.823 1.41zM896.501 273.644c.077 1.655-.448 3.282-1.477 4.58-.392.543-.911.98-1.512 1.274-.516.222-1.089.273-1.636.147-.959-.237-1.207-.891-1.128-.902.079-.012.417.406 1.207.496.457.055.921-.028 1.331-.237.507-.273.943-.659 1.275-1.128.809-1.33 1.461-2.75 1.94-4.23zM890.511 277.671c-.136 0-.463-1.963-1.129-4.366-.258-1.04-.454-2.095-.586-3.158-.079-.824 0-1.343 0-1.343s.18.485.361 1.275c.259 1.128.496 2.064.744 3.091.722 2.414.801 4.501.61 4.501z"/>
                <path fill="#EB996E" d="M897.855 284.045c-1.804-.142-3.54-.756-5.031-1.782-.623-.367-1.18-.836-1.647-1.388-.367-.474-.622-1.026-.744-1.613-.168-.522-.14-1.088.078-1.591.102 0 0 .61.316 1.489.403 1.116 1.207 2.042 2.257 2.595 2.493 1.557 4.828 2.098 4.771 2.29zM879.536 288.986c-1.344-2.246-3-4.29-4.919-6.069-2.058-1.632-4.337-2.965-6.768-3.96.782.053 1.547.252 2.256.587 3.561 1.41 6.545 3.977 8.472 7.287.455.65.781 1.382.959 2.155zM872.089 268.24c0 .17-1.625.305-3.508.971-1.884.665-3.249 1.534-3.385 1.398.893-.882 1.973-1.554 3.16-1.964 1.188-.41 2.451-.548 3.699-.405h.034z"/>
                <path fill="#263238" d="M901.386 422.879l-11.845 29.139s-58.864-21.536-93.316-15.264c-13.097 2.392-27.074 32.117-8.032 51.205 18.625 18.624 51.893 44.954 114.411 53.471 1.557.215 27.154 5.708 25.574 5.517-1.579-.192 35.885 5.742 35.885 5.742l8.799-33.245 69.838 10.987c41.13-2.809 61.26-46.793 36.5-60.917-23.11-13.21-66.56-14.259-66.56-14.259l-10.66-29.093-100.594-3.283z"/>
                <path fill="#455A64" d="M954.181 424.594c.113 0-.079 2.685-.304 7.005-.226 4.321-.418 10.288-.316 16.922.102 6.633.485 12.555.846 16.853.361 4.298.632 6.961.519 6.983-.184-.595-.309-1.207-.372-1.827-.203-1.196-.429-2.922-.677-5.077-.496-4.298-.959-10.288-1.061-16.921-.101-6.633.17-12.635.531-16.922.18-2.165.361-3.903.519-5.098.039-.649.145-1.291.315-1.918zM960.735 436.033c0 .068-.248.237-.609.654-.504.609-.825 1.348-.925 2.132-.083.561-.046 1.132.11 1.677.156.545.426 1.05.792 1.482.503.447 1.118.75 1.779.875.661.126 1.344.07 1.976-.161.632-.232 1.189-.63 1.612-1.153.424-.523.698-1.151.793-1.817-.005-.567-.13-1.127-.367-1.643-.238-.515-.582-.974-1.01-1.347-.585-.53-1.309-.882-2.087-1.015-.552-.079-.88 0-.891-.09-.011-.09.305-.192.914-.203.877.035 1.719.352 2.403.902.521.4.947.912 1.246 1.497.298.586.462 1.231.48 1.888-.077.815-.382 1.593-.881 2.243-.499.65-1.171 1.147-1.939 1.432-.769.285-1.602.347-2.404.18-.802-.167-1.541-.557-2.131-1.125-.421-.511-.722-1.11-.88-1.752-.158-.642-.17-1.312-.034-1.96.153-.866.585-1.658 1.229-2.256.226-.225.512-.378.824-.44z"/>
                <path fill="#FFBE9D" d="M1011.59 350.58c-.26 1.647-1.13 46.251 1.53 50.301 4.19 6.43 17.68 17.937 26.07 14.79 13.62-5.111 16.7-33.911 16.45-28.564l-10.77-91.003h-20.75l-1.72 32.636-6.05 3.7c-.41 3.795-1.19 7.543-2.31 11.191l-2.45 6.949z"/>
                <path fill="#FFBE9D" d="M1024.12 296.104s-8.28-8.19-8.28-10.007c0-1.816-3.24-2.831-3.24-2.831l-5.25-2.617s-3.39-3.238-2.62-5.054c.44-1.054 1.24-1.915 2.26-2.426 0 0 .26-4.444 3.56-5.64 0 0-3.1-3.384 0-5.855 3.1-2.47 3.85-1.421 3.85-1.421s-.34-2.629 1.48-2.82c1.81-.192 14.81-3.441 14.81-3.441 1.86.935 3.6 2.09 5.19 3.441 1.61 1.613 2.42 2.617 2.42 2.617 1.43-1.815 2.52-3.865 3.24-6.058.8-3.035 2.02-12.127 11.11-11.721v2.256c-1.79 2.695-3.02 5.716-3.64 8.89-1.21 5.64-3.39 18.173-3.39 18.173l-.67 24.57-20.83-.056z"/>
                <path fill="#EB996E" d="M1016.14 386.882c-.09-.3-.15-.605-.18-.914-.1-.609-.26-1.489-.35-2.651-.34-3.265-.39-6.553-.15-9.826.36-4.852 1.01-9.677 1.95-14.451.98-5.392 2.31-11.281 3.31-17.508 1.94-12.488 2.18-23.96 2.5-32.241.15-4.095.27-7.434.35-9.803l.14-2.673c-.01-.311.02-.621.09-.925.01.312.01.624 0 .936v2.662c0 2.381-.09 5.72-.16 9.815-.08 10.813-.87 21.61-2.37 32.32-1.01 6.26-2.36 12.138-3.39 17.519-.96 4.747-1.65 9.546-2.06 14.372-.25 3.255-.25 6.525 0 9.78.06 1.128.19 2.053.25 2.663.05.305.07.615.07.925zM1030.61 258.911c0 .079-.9.056-2.35.248-1.44.192-3.45.395-5.64.598-2.69.358-5.4.52-8.12.485 2.64-.54 5.32-.883 8.01-1.027 2.26-.203 4.23-.349 5.64-.428.82-.153 1.66-.11 2.46.124zM1026.8 268.612c-.79.05-1.57.024-2.35-.079-1.43-.09-3.39-.124-5.64-.18-1.89-.016-3.77-.155-5.64-.418-.78-.068-1.54-.262-2.26-.575.78-.015 1.56.038 2.34.158 1.43.124 3.38.203 5.64.248 2.25.045 4.22.158 5.64.35.77.053 1.54.22 2.27.496zM1023.81 276.453c-.81.003-1.61-.091-2.4-.282-1.46-.249-3.47-.632-5.69-1.128-2.22-.497-4.22-.903-5.64-1.253-.8-.134-1.58-.365-2.32-.688.81-.004 1.62.09 2.41.282 1.45.248 3.47.632 5.64 1.128 2.16.497 4.21.903 5.64 1.264.81.127 1.6.354 2.36.677z"/>
            </g>
        </g>
    </g>
    <defs>
        <filter id="filter0_di" width="311.6" height="309.724" x="795.693" y="231.332" color-interpolation-filters="sRGB" filterUnits="userSpaceOnUse">
            <feFlood flood-opacity="0" result="BackgroundImageFix"/>
            <feColorMatrix in="SourceAlpha" values="0 0 0 0 0 0 0 0 0 0 0 0 0 0 0 0 0 0 127 0"/>
            <feOffset dy="40"/>
            <feGaussianBlur stdDeviation="26"/>
            <feColorMatrix values="0 0 0 0 0.236667 0 0 0 0 0.267433 0 0 0 0 0.295833 0 0 0 0.2 0"/>
            <feBlend in2="BackgroundImageFix" result="effect1_dropShadow"/>
            <feBlend in="SourceGraphic" in2="effect1_dropShadow" result="shape"/>
            <feColorMatrix in="SourceAlpha" result="hardAlpha" values="0 0 0 0 0 0 0 0 0 0 0 0 0 0 0 0 0 0 127 0"/>
            <feOffset dx="4" dy="4"/>
            <feGaussianBlur stdDeviation="2"/>
            <feComposite in2="hardAlpha" k2="-1" k3="1" operator="arithmetic"/>
            <feColorMatrix values="0 0 0 0 1 0 0 0 0 1 0 0 0 0 1 0 0 0 0.25 0"/>
            <feBlend in2="shape" result="effect2_innerShadow"/>
        </filter>
        <filter id="filter1_d" width="281.656" height="342.108" x="804.23" y="135.211" color-interpolation-filters="sRGB" filterUnits="userSpaceOnUse">
            <feFlood flood-opacity="0" result="BackgroundImageFix"/>
            <feColorMatrix in="SourceAlpha" values="0 0 0 0 0 0 0 0 0 0 0 0 0 0 0 0 0 0 127 0"/>
            <feOffset dy="4"/>
            <feGaussianBlur stdDeviation="12"/>
            <feColorMatrix values="0 0 0 0 0 0 0 0 0 0 0 0 0 0 0 0 0 0 0.12 0"/>
            <feBlend in2="BackgroundImageFix" result="effect1_dropShadow"/>
            <feBlend in="SourceGraphic" in2="effect1_dropShadow" result="shape"/>
        </filter>
        <linearGradient id="paint0_linear" x1="873.643" x2="1030.33" y1="278.477" y2="410.597" gradientUnits="userSpaceOnUse">
            <stop stop-color="#CECECE"/>
            <stop offset="1" stop-color="#fff"/>
        </linearGradient>
        <clipPath id="clip0">
            <path fill="#fff" d="M0 0H1280V800H0z"/>
        </clipPath>
    </defs>
</svg>
