<svg width="510" height="430" viewBox="0 0 510 430" fill="none" xmlns="http://www.w3.org/2000/svg">
<g filter="url(#filter0_di)">
<ellipse cx="255.16" cy="167.806" rx="64.3307" ry="63.7493" fill="url(#paint0_linear)"/>
</g>
<g filter="url(#filter1_d)">
<mask id="mask0" mask-type="alpha" maskUnits="userSpaceOnUse" x="190" y="4" width="130" height="228">
<path d="M319.491 167.97C319.491 203.177 290.689 231.719 255.16 231.719C219.631 231.719 190.829 203.177 190.829 167.97C190.829 132.762 221.663 4 257.192 4C292.72 4 319.491 132.762 319.491 167.97Z" fill="#399F4B"/>
</mask>
<g mask="url(#mask0)">
<path d="M218.548 209.37C218.548 209.37 208.556 228.628 208.556 244.198C208.556 247.475 227.548 403.232 227.548 403.232L256.298 400.832L243.676 257.485L248.175 226.813L218.548 209.37Z" fill="#273339"/>
<path d="M282.594 226.404C282.594 226.404 275.874 282.654 272.718 304.312C269.446 326.964 262.901 331.295 262.901 331.295L210.893 397.906L190.499 379.527L236.079 312.858C236.079 312.858 248.584 224.59 248.117 226.697C247.766 228.921 282.594 226.404 282.594 226.404Z" fill="#273339"/>
<path d="M232.515 114.314C232.515 114.314 222.464 120.342 219.425 125.728C216.386 131.113 200.317 170.33 200.959 176.768C201.602 183.207 216.737 187.129 216.737 187.129L232.515 166.642L223.106 160.262L232.515 148.497V114.314Z" fill="#349A47"/>
<path d="M248.76 109.105L232.515 114.314C232.515 114.314 225.152 184.495 221.47 194.563C219.074 201.646 217.497 208.962 216.795 216.337C216.795 216.337 218.841 235.946 241.689 238.638C264.537 241.331 282.652 227.868 282.652 227.868C282.652 227.868 296.326 193.217 300.3 163.658C304.273 134.098 301.527 117.241 301.527 117.241L276.517 108.227L248.76 109.105Z" fill="#349A47"/>
<path d="M296.911 119.348C296.209 120.05 286.158 126.723 282.828 138.137C279.497 149.551 275.815 161.316 275.815 161.316L262.726 163.013L270.089 193.216C270.089 193.216 285.866 191.519 294.573 177.061C303.28 162.604 308.656 144.81 308.656 144.81C308.656 144.81 307.546 108.285 296.911 119.348Z" fill="#349A47"/>
<path d="M216.737 187.187C216.737 187.187 253.259 194.504 266.524 178.758L262.667 165.413C262.667 165.413 238.533 171.149 230.995 168.691L216.737 187.187Z" fill="#FBBD9E"/>
<path d="M267.167 162.428C267.167 162.428 272.718 149.96 273.478 149.843C274.238 149.667 284.873 145.921 284.873 145.921C285.223 146.799 285.223 147.736 284.873 148.614L288.788 149.141C288.788 149.141 288.204 151.54 286.918 151.833L288.321 153.062C287.619 153.999 286.743 154.76 285.691 155.287C284.873 155.696 283.938 155.696 283.178 155.287C283.178 155.287 283.646 156.165 281.484 157.569C279.263 158.974 275.523 161.023 275.523 161.023L267.167 162.428Z" fill="#FBBD9E"/>
<path d="M267.167 162.486C267.401 161.959 272.718 150.019 273.478 149.843C274.238 149.667 284.873 145.98 284.931 145.921C285.223 146.799 285.223 147.736 284.931 148.614L288.788 149.141C288.788 149.258 288.204 151.482 286.918 151.833L288.321 153.062C287.619 153.999 286.743 154.76 285.691 155.287C284.873 155.638 283.996 155.638 283.178 155.287C283.237 155.521 283.295 156.34 281.425 157.511C279.263 158.857 275.465 160.964 275.465 160.964L267.167 162.486ZM284.931 145.921C284.347 146.155 274.179 149.667 273.536 149.843C272.835 150.019 269.212 158.096 267.342 162.369L275.523 160.906C275.64 160.847 279.321 158.857 281.484 157.452C283.646 156.106 283.178 155.228 283.178 155.228V155.111L283.237 155.169C284.055 155.579 284.931 155.579 285.749 155.169C286.743 154.643 287.678 153.882 288.379 152.945L286.977 151.716H287.035C288.262 151.423 288.788 149.316 288.905 149.082L285.048 148.614C285.282 147.736 285.282 146.799 284.931 145.921Z" fill="#EC9A6F"/>
<path d="M284.581 148.615C282.302 149.727 279.964 150.605 277.568 151.366C276.575 151.717 275.64 152.01 274.88 152.42C274.179 152.771 273.653 153.298 273.303 153.941C272.66 155.112 272.426 155.932 272.309 155.932C272.368 155.171 272.543 154.41 272.894 153.766C273.244 153.005 273.887 152.361 274.588 151.951C275.465 151.542 276.4 151.19 277.393 150.898C279.731 149.961 282.126 149.2 284.581 148.615Z" fill="#EC9A6F"/>
<path d="M287.093 151.775C286.509 152.126 285.866 152.361 285.165 152.478C283.938 152.829 282.185 153.063 280.373 153.59C278.795 153.999 277.335 154.702 276.049 155.638C275.056 156.399 274.647 157.043 274.588 156.985C274.53 156.926 274.822 156.165 275.815 155.287C277.101 154.175 278.62 153.414 280.256 153.004C282.126 152.478 283.879 152.302 285.107 152.068C285.749 151.951 286.392 151.834 287.093 151.775Z" fill="#EC9A6F"/>
<path d="M277.276 157.453C277.919 156.575 278.796 155.989 279.847 155.697C280.841 155.229 281.893 155.111 282.944 155.404C282.944 155.58 281.6 155.697 280.023 156.224C278.503 156.809 277.393 157.57 277.276 157.453Z" fill="#EC9A6F"/>
<path d="M263.836 166.232L233.216 157.687L224.1 167.637C224.1 167.637 255.246 192.104 269.504 191.694" fill="#FBBD9E"/>
<path d="M269.504 191.694C268.219 191.811 266.933 191.694 265.706 191.401C262.317 190.699 258.986 189.528 255.83 188.006C247.766 184.377 237.423 177.88 226.671 169.861L223.983 167.812L223.749 167.637L223.983 167.403L233.099 157.452L233.216 157.335H233.391L255.363 163.539L261.674 165.412L263.369 165.939C263.544 165.998 263.778 166.056 263.953 166.173C263.778 166.173 263.544 166.115 263.369 166.056L261.674 165.647L255.305 163.949L233.274 157.862L233.566 157.803L224.451 167.754V167.344L227.139 169.393C237.891 177.412 248.234 183.909 256.123 187.655C259.22 189.177 262.492 190.348 265.881 191.167C266.407 191.284 266.933 191.401 267.459 191.46C267.868 191.518 268.277 191.577 268.628 191.577C268.862 191.518 269.154 191.577 269.504 191.694Z" fill="#EC9A6F"/>
<path d="M283.879 131.289C283.821 132.108 283.704 132.928 283.412 133.747C283.061 135.269 282.535 137.259 281.951 139.542C281.367 141.766 280.782 143.815 280.315 145.278C280.14 146.098 279.847 146.859 279.497 147.62C279.555 146.8 279.672 145.981 279.964 145.161C280.315 143.639 280.841 141.649 281.425 139.366C282.009 137.142 282.594 135.094 283.061 133.63C283.178 132.811 283.47 132.05 283.879 131.289Z" fill="#273339"/>
<path d="M282.418 172.321C282.302 172.321 282.009 170.799 281.25 168.458C280.841 167.053 280.139 165.766 279.263 164.653C278.211 163.249 276.692 162.312 274.997 161.961C273.244 161.902 271.491 162.078 269.796 162.546L265.472 163.424C264.946 163.483 264.42 163.658 263.894 163.834C263.544 164.01 263.252 164.302 263.076 164.653C262.901 165.005 262.901 165.356 263.076 165.707C263.076 165.707 262.609 165.414 262.843 164.653C262.959 164.185 263.31 163.834 263.719 163.6C264.245 163.366 264.771 163.19 265.355 163.073L269.68 162.078C271.433 161.551 273.244 161.317 275.114 161.434C276.984 161.785 278.62 162.839 279.73 164.361C280.607 165.59 281.308 166.936 281.659 168.4C281.951 169.336 282.126 170.331 282.302 171.326C282.418 171.619 282.418 171.97 282.418 172.321Z" fill="#273339"/>
<path d="M286.918 165.705C286.042 164.124 284.814 162.661 283.354 161.549C280.841 159.793 278.27 159.5 278.328 159.325C278.912 159.208 279.438 159.266 280.023 159.442C281.367 159.734 282.594 160.261 283.704 161.081C284.814 161.842 285.749 162.895 286.392 164.066C286.684 164.593 286.86 165.178 286.918 165.705Z" fill="#273339"/>
<path d="M308.656 144.868C308.598 145.102 308.539 145.278 308.481 145.512C308.305 145.98 308.13 146.566 307.896 147.327C307.312 148.965 306.552 151.19 305.617 153.941C304.682 156.692 303.514 160.087 301.878 163.657C300.241 167.228 298.313 171.091 295.976 175.013C293.813 178.7 291.009 181.978 287.736 184.788C285.107 187.07 282.126 188.944 278.912 190.29C276.75 191.226 274.471 191.87 272.134 192.163C271.491 192.28 270.848 192.338 270.205 192.338C269.972 192.338 269.738 192.338 269.563 192.338C269.563 192.28 270.498 192.221 272.075 191.929C274.354 191.519 276.575 190.817 278.737 189.88C285.749 186.661 291.593 181.334 295.45 174.661C297.729 170.798 299.599 166.935 301.352 163.423C303.105 159.911 304.157 156.575 305.208 153.765C306.26 151.014 307.078 148.731 307.663 147.209L308.364 145.454C308.422 145.219 308.539 145.044 308.656 144.868Z" fill="#273339"/>
<path d="M288.73 126.313C291.476 123.27 295.158 121.104 299.19 120.168Z" fill="#273339"/>
<path d="M231.346 145.453C231.463 143.521 231.755 141.59 232.222 139.775C232.515 137.843 233.04 136.029 233.683 134.214C233.566 136.146 233.274 138.078 232.807 139.892C232.515 141.765 231.989 143.638 231.346 145.453Z" fill="#273339"/>
<path d="M274.179 200.355C273.653 200.648 273.069 200.941 272.485 201.233C271.959 201.467 271.257 201.819 270.439 202.111C269.621 202.404 268.745 202.814 267.693 203.165C265.297 203.984 262.843 204.745 260.33 205.272C254.194 206.677 247.942 207.204 241.689 206.911C239.118 206.794 236.605 206.501 234.092 206.091C232.982 205.974 232.047 205.74 231.229 205.565C230.411 205.389 229.651 205.213 229.067 205.038C228.424 204.921 227.84 204.745 227.256 204.511C227.898 204.57 228.483 204.687 229.125 204.804C229.71 204.921 230.469 205.096 231.288 205.213C232.164 205.331 233.099 205.565 234.151 205.682C236.313 205.974 238.884 206.209 241.748 206.384C247.942 206.618 254.194 206.091 260.272 204.745C262.726 204.218 265.18 203.516 267.634 202.755C268.686 202.462 269.563 202.053 270.381 201.819C271.199 201.526 271.9 201.292 272.426 201.058C272.952 200.765 273.536 200.531 274.179 200.355Z" fill="#273339"/>
<path d="M247.357 217.508C245.078 217.215 242.858 216.63 240.696 215.81C238.475 215.166 236.371 214.288 234.326 213.118C234.385 212.942 237.248 214.054 240.871 215.166C243.091 215.927 245.254 216.688 247.357 217.508Z" fill="#273339"/>
<g opacity="0.3">
<path opacity="0.3" d="M260.038 189.879C257.875 188.942 255.772 187.713 253.493 187.362C250.688 186.952 248.292 187.772 245.487 188.24C237.072 189.586 230.82 188.532 222.931 188.24L222.522 190.64C226.028 193.332 230.411 194.21 234.793 194.152C238.825 194.093 242.741 192.747 246.773 192.864C249.928 193.098 253.025 193.742 256.064 194.737C261.148 196.083 266.524 197.02 271.725 196.142C276.925 195.264 282.009 192.161 284.171 187.362C277.042 192.161 267.985 193.157 260.038 189.879Z" fill="#010101"/>
</g>
<g opacity="0.3">
<path opacity="0.3" d="M235.261 214.288C238.709 220.024 244.669 223.77 251.331 224.473C252.733 224.648 254.194 224.531 255.597 224.122C256.999 223.712 258.109 222.717 258.811 221.429C257.291 220.434 255.597 219.732 253.844 219.38L235.553 214.347" fill="#010101"/>
</g>
<path d="M225.385 167.403L213.581 167.813C212.413 167.813 211.303 166.759 210.777 165.062L201.778 134.683C200.901 131.815 202.187 128.537 204.173 128.479L221.178 127.425C222.464 127.367 223.632 128.596 224.1 130.528L230.177 156.224C231.521 161.55 229.067 167.228 225.385 167.403Z" fill="#465B65"/>
<path d="M217.088 154.643C215.744 155.99 208.381 150.019 206.16 150.429C203.94 150.839 202.654 152.127 203.881 153.063C205.108 154 208.147 157.043 208.614 158.331C208.614 158.331 208.848 152.946 208.264 153.824C207.68 154.702 206.686 156.107 208.147 156.692C209.549 157.277 207.387 162.019 208.439 162.663C210.192 163.482 212.004 164.126 213.874 164.536C215.802 165.121 217.73 165.823 219.542 166.584C222.405 167.755 225.561 167.813 228.483 166.818L229.943 166.292C232.222 165.472 233.8 163.306 233.742 160.848L233.683 155.931L235.436 151.951L232.339 145.278L227.139 143.581L229.125 149.727C227.08 150.78 223.632 151.424 221.879 150.429C220.126 149.493 213.289 142.644 212.004 143.288C210.718 143.932 209.549 145.512 210.718 146.976C211.945 148.556 218.373 153.239 217.088 154.643Z" fill="#FBBD9E"/>
<path d="M219.717 229.04C219.717 229.04 219.308 229.332 218.548 229.508C217.555 229.742 216.503 229.742 215.51 229.566C214.516 229.391 213.523 228.981 212.705 228.454C212.062 228.044 211.712 227.635 211.77 227.576C212.997 228.22 214.283 228.688 215.627 229.04C216.971 229.215 218.373 229.215 219.717 229.04Z" fill="#465B65"/>
<path d="M306.085 142.058C305.851 142.234 305.559 142.409 305.267 142.526C304.507 142.936 303.689 143.229 302.812 143.521C301.585 143.931 300.3 144.224 299.014 144.399C297.436 144.575 295.859 144.634 294.222 144.575C292.645 144.458 291.067 144.165 289.548 143.756C288.32 143.404 287.093 142.936 285.925 142.351C285.107 142 284.405 141.531 283.646 141.063C283.353 140.887 283.12 140.712 282.886 140.478C282.944 140.419 284.055 141.18 286.1 142.058C287.269 142.585 288.496 142.995 289.723 143.287C291.242 143.697 292.762 143.931 294.339 144.048C295.917 144.165 297.436 144.107 299.014 143.931C300.3 143.756 301.527 143.521 302.754 143.17C304.799 142.585 306.026 142 306.085 142.058Z" fill="white"/>
<path d="M225.619 137.317C226.613 137.376 227.606 137.434 228.599 137.61C229.593 137.61 230.586 137.61 231.58 137.727C229.593 138.429 227.431 138.312 225.619 137.317Z" fill="white"/>
<path d="M281.776 137.024C281.776 137.2 270.79 138.253 257.174 139.424C243.559 140.595 232.515 141.473 232.456 141.297C232.456 141.121 243.442 140.068 257.116 138.897C270.79 137.727 281.776 136.907 281.776 137.024Z" fill="white"/>
<path d="M274.179 112.733C274.647 111.796 274.939 110.684 274.88 109.63L273.653 69.301C274.121 58.0626 267.985 48.4047 256.765 48.2876H255.714C245.254 48.7559 236.897 57.1847 236.547 67.6035C236.196 77.32 235.904 88.0901 236.196 93.2995C236.78 104.07 247.591 105.299 247.591 105.299L247.942 109.513C247.942 109.513 247.124 116.771 255.538 119.288C262.025 121.22 269.095 117.122 272.134 115.132C272.952 114.43 273.653 113.669 274.179 112.733Z" fill="#FBBD9E"/>
<path d="M247.532 105.3C252.558 105.066 257.35 103.427 261.44 100.559C261.44 100.559 258.46 108.461 247.708 107.934L247.532 105.3Z" fill="#EC9A6F"/>
<path d="M242.507 76.3241C242.507 77.1436 243.208 77.8459 244.026 77.7874C244.844 77.8459 245.487 77.2021 245.546 76.3826V76.3241C245.546 75.5046 244.844 74.8022 244.026 74.8022C243.208 74.8608 242.565 75.5046 242.507 76.3241Z" fill="#273339"/>
<path d="M239.059 72.8133C239.235 72.9889 240.403 72.1109 242.04 72.0523C243.676 71.9938 244.961 72.7547 245.137 72.5791C245.312 72.345 245.02 72.1109 244.435 71.7597C243.676 71.2914 242.858 71.0573 241.981 71.1158C241.105 71.1158 240.286 71.467 239.644 71.9938C239.118 72.345 238.942 72.6962 239.059 72.8133Z" fill="#273339"/>
<path d="M258.518 76.3254C258.518 77.1449 259.22 77.8473 260.038 77.7888C260.856 77.8473 261.499 77.2034 261.557 76.384V76.3254C261.557 75.506 260.856 74.8036 260.038 74.8621C259.22 74.8621 258.577 75.506 258.518 76.3254Z" fill="#273339"/>
<path d="M255.304 72.4051C255.48 72.5807 256.648 71.7027 258.285 71.6442C259.921 71.5857 261.206 72.3466 261.382 72.171C261.615 71.9369 261.265 71.7027 260.681 71.3515C259.921 70.8833 259.103 70.6491 258.226 70.7077C257.35 70.7662 256.532 71.0589 255.889 71.5857C255.363 71.9369 255.246 72.3466 255.304 72.4051Z" fill="#273339"/>
<path d="M249.87 84.9314C248.993 84.6972 248.058 84.5802 247.182 84.5802C246.773 84.5802 246.364 84.4631 246.247 84.1704C246.188 83.7607 246.247 83.2924 246.481 82.9412L247.591 79.6634C249.11 74.9808 250.22 71.1761 250.045 71.1176C249.87 71.059 248.467 74.8052 246.948 79.4293C246.597 80.5999 246.247 81.6535 245.896 82.7071C245.662 83.2339 245.604 83.8192 245.779 84.4046C245.896 84.6972 246.188 84.9314 246.481 84.9899C246.714 85.0484 246.948 85.0484 247.182 85.0484C248.058 85.107 248.993 85.107 249.87 84.9314Z" fill="#273339"/>
<path d="M254.603 65.9073C254.779 66.3755 256.415 66.0829 258.402 66.1999C260.33 66.3755 261.966 66.7852 262.2 66.3755C262.317 66.1414 262.025 65.7902 261.382 65.3219C260.505 64.7951 259.57 64.5025 258.577 64.4439C257.583 64.3854 256.59 64.5025 255.655 64.9122C254.895 65.3805 254.545 65.7317 254.603 65.9073Z" fill="#273339"/>
<path d="M239.468 68.0148C239.761 68.366 240.871 67.9563 242.273 67.8392C243.676 67.7807 244.786 67.9563 245.078 67.5466C245.195 67.371 244.961 66.9612 244.494 66.6686C243.793 66.2588 242.975 66.0832 242.215 66.1418C241.397 66.2003 240.637 66.493 239.994 67.0198C239.468 67.4295 239.293 67.7807 239.468 68.0148Z" fill="#273339"/>
<path d="M272.368 79.8381C272.368 78.1992 273.653 76.9115 275.231 76.8529C275.289 76.8529 275.348 76.8529 275.406 76.8529C277.393 76.97 279.672 78.0236 279.73 82.1794C279.789 89.5546 272.426 88.1498 272.368 87.9157C272.368 87.7401 272.368 82.9404 272.368 79.8381Z" fill="#FBBD9E"/>
<path d="M273.945 85.1653C273.945 85.1653 274.062 85.2823 274.296 85.3409C274.588 85.4579 274.939 85.4579 275.231 85.3409C276.166 84.697 276.75 83.6434 276.692 82.4727C276.692 81.8289 276.575 81.185 276.283 80.6582C276.166 80.19 275.757 79.8388 275.289 79.6632C274.997 79.6046 274.646 79.7217 274.53 80.0144C274.413 80.2485 274.471 80.3656 274.471 80.3656C274.413 80.3656 274.296 80.2485 274.354 79.9558C274.413 79.7802 274.471 79.6046 274.646 79.4876C274.822 79.312 275.114 79.2534 275.348 79.312C275.991 79.429 276.458 79.8388 276.692 80.4241C277.042 81.0679 277.159 81.7703 277.159 82.4727C277.159 83.9361 276.4 85.3409 275.348 85.6921C274.939 85.8091 274.53 85.7506 274.179 85.5165C273.945 85.3409 273.887 85.1653 273.945 85.1653Z" fill="#EC9A6F"/>
<path d="M236.547 67.3118C236.43 68.8336 234.56 63.7412 235.319 62.4535C233.274 63.0388 231.112 61.8097 230.528 59.761C229.943 57.7123 231.171 55.5466 233.216 54.9613C233.566 54.8442 233.917 54.7857 234.268 54.8442C233.508 53.4394 233.742 51.742 234.91 50.6298C235.553 50.1616 236.313 49.8689 237.072 49.7518C237.072 48.8153 237.248 47.9373 237.715 47.1179C239.351 43.8985 243.267 42.6693 246.481 44.3083C246.948 44.5424 247.416 44.8936 247.825 45.2448C249.928 42.3767 254.019 41.7328 256.882 43.84C257.525 44.3083 258.051 44.8936 258.518 45.596C261.44 43.84 265.18 44.718 266.991 47.6447C267.225 47.9959 267.401 48.3471 267.517 48.6982C269.387 47.7032 271.725 48.0544 273.244 49.5762C273.77 50.2786 274.296 50.981 274.88 51.5664C275.698 52.0932 276.633 52.5614 277.568 52.9126C280.023 54.376 280.782 57.5953 279.321 60.0537C279.146 60.3463 278.971 60.5805 278.737 60.8146C279.789 61.5755 280.724 62.512 281.483 63.6242C282.243 64.7363 282.418 66.1411 282.009 67.3703C281.367 68.8336 279.73 69.5945 279.146 71.0579C278.854 71.7017 278.854 72.4627 278.562 73.1065C278.094 74.2187 277.159 75.0381 275.991 75.3893C275.289 78.3745 273.244 79.194 273.186 80.0134C272.601 89.2031 268.803 83.8766 266.933 64.5022C266.466 59.9366 268.16 57.6538 264.596 54.8442C264.128 55.4295 263.661 56.0149 263.252 56.6587C261.089 59.2342 257.233 59.5854 254.662 57.3611C254.486 57.2441 254.369 57.0685 254.253 56.9514C252.85 59.4098 249.636 60.2878 247.182 58.8245C246.714 58.5318 246.247 58.1806 245.896 57.7709C244.552 58.9415 241.514 60.9317 239.176 58.8245C237.54 61.5755 236.722 64.3851 236.547 67.3118Z" fill="#273339"/>
<path d="M249.461 88.6765C249.695 89.3789 250.045 90.0227 250.454 90.6081C250.863 91.1934 251.564 91.6031 252.266 91.6617C253.025 91.6617 253.785 91.3105 254.194 90.6081C254.603 89.9642 254.778 89.1447 254.72 88.3838C254.72 87.6814 254.369 86.862 253.668 86.7449C253.376 86.7449 253.084 86.8034 252.85 86.9205L249.169 88.3838" fill="#EC9A6F"/>
<path d="M250.863 91.6605C251.506 91.719 252.207 91.602 252.792 91.4264C253.435 91.1922 253.96 90.724 254.253 90.0801C254.603 89.3192 254.603 88.4412 254.253 87.6802C254.194 87.5046 254.077 87.329 253.96 87.1534C253.844 87.0364 253.844 87.0364 253.668 87.0364C253.493 87.0949 253.259 87.1534 253.084 87.2705L252.5 87.5046C251.74 87.7973 250.98 88.09 250.454 88.3241C249.812 88.6168 249.169 88.8509 248.468 88.9094C248.993 88.4412 249.636 88.09 250.279 87.8558C250.863 87.5632 251.565 87.2705 252.324 86.9193L252.909 86.6852C253.142 86.5681 253.318 86.5096 253.551 86.3925C253.727 86.334 253.902 86.334 254.077 86.3925C254.253 86.4511 254.37 86.5681 254.486 86.6852C254.662 86.9193 254.779 87.1534 254.895 87.3876C255.304 88.3241 255.246 89.3777 254.779 90.3142C254.37 91.0166 253.727 91.602 252.909 91.8361C252.383 92.0117 251.857 92.0117 251.331 91.8946C251.039 91.8361 250.863 91.719 250.863 91.6605Z" fill="#273339"/>
</g>
</g>
<path d="M54.5711 392.847V382.894H57.3807C58.2466 382.894 59.0122 383.085 59.6776 383.468C60.3429 383.851 60.8556 384.395 61.2157 385.102C61.5803 385.808 61.7648 386.619 61.7694 387.535V388.171C61.7694 389.11 61.5871 389.932 61.2225 390.639C60.8625 391.345 60.3452 391.887 59.6707 392.266C59.0008 392.644 58.2192 392.838 57.326 392.847H54.5711ZM55.8836 383.974V391.773H57.2645C58.2762 391.773 59.0623 391.459 59.6229 390.83C60.188 390.201 60.4706 389.306 60.4706 388.144V387.562C60.4706 386.432 60.2039 385.555 59.6707 384.931C59.1421 384.302 58.3901 383.983 57.4149 383.974H55.8836ZM68.4068 392.847C68.3339 392.701 68.2746 392.441 68.2291 392.067C67.6412 392.678 66.9394 392.983 66.1236 392.983C65.3944 392.983 64.7951 392.778 64.3257 392.368C63.8609 391.953 63.6285 391.429 63.6285 390.796C63.6285 390.026 63.9201 389.429 64.5035 389.005C65.0914 388.576 65.9162 388.362 66.9781 388.362H68.2086V387.781C68.2086 387.339 68.0764 386.988 67.8121 386.729C67.5477 386.464 67.1581 386.332 66.6431 386.332C66.192 386.332 65.8137 386.446 65.5084 386.674C65.203 386.902 65.0504 387.177 65.0504 387.501H63.7789C63.7789 387.132 63.9088 386.776 64.1685 386.435C64.4328 386.088 64.7883 385.815 65.2349 385.614C65.6861 385.414 66.1806 385.313 66.7183 385.313C67.5705 385.313 68.2382 385.528 68.7213 385.956C69.2043 386.38 69.455 386.965 69.4732 387.713V391.117C69.4732 391.796 69.5598 392.336 69.733 392.737V392.847H68.4068ZM66.3082 391.883C66.7047 391.883 67.0806 391.78 67.4361 391.575C67.7916 391.37 68.0491 391.104 68.2086 390.775V389.258H67.2173C65.6679 389.258 64.8931 389.711 64.8931 390.618C64.8931 391.015 65.0253 391.325 65.2896 391.548C65.5539 391.771 65.8935 391.883 66.3082 391.883ZM73.1097 392.847H71.845V382.347H73.1097V392.847ZM79.9863 392.847C79.9134 392.701 79.8542 392.441 79.8086 392.067C79.2207 392.678 78.5189 392.983 77.7031 392.983C76.974 392.983 76.3747 392.778 75.9053 392.368C75.4404 391.953 75.208 391.429 75.208 390.796C75.208 390.026 75.4997 389.429 76.083 389.005C76.6709 388.576 77.4958 388.362 78.5576 388.362H79.7881V387.781C79.7881 387.339 79.6559 386.988 79.3916 386.729C79.1273 386.464 78.7376 386.332 78.2227 386.332C77.7715 386.332 77.3932 386.446 77.0879 386.674C76.7826 386.902 76.6299 387.177 76.6299 387.501H75.3584C75.3584 387.132 75.4883 386.776 75.7481 386.435C76.0124 386.088 76.3678 385.815 76.8145 385.614C77.2656 385.414 77.7601 385.313 78.2979 385.313C79.1501 385.313 79.8177 385.528 80.3008 385.956C80.7839 386.38 81.0345 386.965 81.0527 387.713V391.117C81.0527 391.796 81.1393 392.336 81.3125 392.737V392.847H79.9863ZM77.8877 391.883C78.2842 391.883 78.6602 391.78 79.0156 391.575C79.3711 391.37 79.6286 391.104 79.7881 390.775V389.258H78.7969C77.2474 389.258 76.4727 389.711 76.4727 390.618C76.4727 391.015 76.6048 391.325 76.8691 391.548C77.1335 391.771 77.473 391.883 77.8877 391.883ZM84.5046 385.45L84.5388 386.271C85.0811 385.632 85.8126 385.313 86.7331 385.313C87.7676 385.313 88.4717 385.71 88.8454 386.503C89.0915 386.147 89.4105 385.86 89.8025 385.642C90.199 385.423 90.6661 385.313 91.2038 385.313C92.8262 385.313 93.6511 386.173 93.6784 387.891V392.847H92.4138V387.966C92.4138 387.437 92.293 387.043 92.0515 386.783C91.81 386.519 91.4044 386.387 90.8347 386.387C90.3653 386.387 89.9756 386.528 89.6657 386.811C89.3559 387.089 89.1758 387.465 89.1257 387.938V392.847H87.8542V388C87.8542 386.924 87.3279 386.387 86.2751 386.387C85.4457 386.387 84.8783 386.74 84.573 387.446V392.847H83.3083V385.45H84.5046ZM104.192 392.115C103.699 392.694 102.977 392.983 102.025 392.983C101.236 392.983 100.635 392.756 100.22 392.3C99.8097 391.84 99.6024 391.16 99.5978 390.263V385.45H100.862V390.229C100.862 391.35 101.318 391.91 102.23 391.91C103.196 391.91 103.838 391.55 104.157 390.83V385.45H105.422V392.847H104.219L104.192 392.115ZM113.878 389.23C113.878 390.356 113.62 391.263 113.105 391.951C112.59 392.639 111.893 392.983 111.014 392.983C110.116 392.983 109.409 392.699 108.894 392.129V395.69H107.63V385.45H108.785L108.847 386.271C109.362 385.632 110.077 385.313 110.993 385.313C111.882 385.313 112.584 385.648 113.099 386.318C113.618 386.988 113.878 387.92 113.878 389.114V389.23ZM112.613 389.087C112.613 388.253 112.435 387.594 112.08 387.111C111.724 386.628 111.237 386.387 110.617 386.387C109.851 386.387 109.277 386.726 108.894 387.405V390.939C109.273 391.614 109.851 391.951 110.631 391.951C111.237 391.951 111.718 391.712 112.073 391.233C112.433 390.75 112.613 390.035 112.613 389.087ZM120.338 392.847C120.265 392.701 120.205 392.441 120.16 392.067C119.572 392.678 118.87 392.983 118.054 392.983C117.325 392.983 116.726 392.778 116.256 392.368C115.792 391.953 115.559 391.429 115.559 390.796C115.559 390.026 115.851 389.429 116.434 389.005C117.022 388.576 117.847 388.362 118.909 388.362H120.139V387.781C120.139 387.339 120.007 386.988 119.743 386.729C119.478 386.464 119.089 386.332 118.574 386.332C118.123 386.332 117.744 386.446 117.439 386.674C117.134 386.902 116.981 387.177 116.981 387.501H115.71C115.71 387.132 115.839 386.776 116.099 386.435C116.364 386.088 116.719 385.815 117.166 385.614C117.617 385.414 118.111 385.313 118.649 385.313C119.501 385.313 120.169 385.528 120.652 385.956C121.135 386.38 121.386 386.965 121.404 387.713V391.117C121.404 391.796 121.491 392.336 121.664 392.737V392.847H120.338ZM118.239 391.883C118.635 391.883 119.011 391.78 119.367 391.575C119.722 391.37 119.98 391.104 120.139 390.775V389.258H119.148C117.599 389.258 116.824 389.711 116.824 390.618C116.824 391.015 116.956 391.325 117.22 391.548C117.485 391.771 117.824 391.883 118.239 391.883ZM125.977 390.994L127.7 385.45H129.053L126.079 393.988C125.619 395.219 124.888 395.834 123.885 395.834L123.646 395.813L123.174 395.725V394.699L123.516 394.727C123.944 394.727 124.277 394.64 124.514 394.467C124.756 394.294 124.954 393.977 125.109 393.517L125.389 392.765L122.75 385.45H124.131L125.977 390.994ZM134.925 392.847C134.852 392.701 134.793 392.441 134.747 392.067C134.159 392.678 133.457 392.983 132.642 392.983C131.912 392.983 131.313 392.778 130.844 392.368C130.379 391.953 130.147 391.429 130.147 390.796C130.147 390.026 130.438 389.429 131.022 389.005C131.609 388.576 132.434 388.362 133.496 388.362H134.727V387.781C134.727 387.339 134.594 386.988 134.33 386.729C134.066 386.464 133.676 386.332 133.161 386.332C132.71 386.332 132.332 386.446 132.026 386.674C131.721 386.902 131.568 387.177 131.568 387.501H130.297C130.297 387.132 130.427 386.776 130.687 386.435C130.951 386.088 131.306 385.815 131.753 385.614C132.204 385.414 132.699 385.313 133.236 385.313C134.089 385.313 134.756 385.528 135.239 385.956C135.722 386.38 135.973 386.965 135.991 387.713V391.117C135.991 391.796 136.078 392.336 136.251 392.737V392.847H134.925ZM132.826 391.883C133.223 391.883 133.599 391.78 133.954 391.575C134.31 391.37 134.567 391.104 134.727 390.775V389.258H133.735C132.186 389.258 131.411 389.711 131.411 390.618C131.411 391.015 131.543 391.325 131.808 391.548C132.072 391.771 132.412 391.883 132.826 391.883ZM146.313 390.885C146.313 390.543 146.183 390.279 145.923 390.092C145.668 389.9 145.219 389.736 144.577 389.6C143.939 389.463 143.43 389.299 143.052 389.107C142.679 388.916 142.401 388.688 142.218 388.424C142.041 388.16 141.952 387.845 141.952 387.48C141.952 386.874 142.207 386.362 142.717 385.942C143.232 385.523 143.888 385.313 144.686 385.313C145.525 385.313 146.204 385.53 146.723 385.963C147.247 386.396 147.509 386.95 147.509 387.624H146.238C146.238 387.278 146.09 386.979 145.793 386.729C145.502 386.478 145.133 386.353 144.686 386.353C144.226 386.353 143.866 386.453 143.606 386.653C143.346 386.854 143.216 387.116 143.216 387.439C143.216 387.745 143.337 387.975 143.579 388.13C143.82 388.285 144.255 388.433 144.884 388.574C145.518 388.715 146.03 388.884 146.422 389.08C146.814 389.276 147.104 389.513 147.291 389.791C147.482 390.064 147.578 390.399 147.578 390.796C147.578 391.457 147.313 391.988 146.785 392.389C146.256 392.785 145.57 392.983 144.727 392.983C144.135 392.983 143.61 392.879 143.155 392.669C142.699 392.459 142.341 392.168 142.082 391.794C141.826 391.416 141.699 391.008 141.699 390.57H142.963C142.986 390.994 143.155 391.331 143.469 391.582C143.788 391.828 144.208 391.951 144.727 391.951C145.206 391.951 145.588 391.855 145.875 391.664C146.167 391.468 146.313 391.208 146.313 390.885ZM152.574 392.983C151.572 392.983 150.756 392.655 150.127 391.999C149.498 391.338 149.184 390.456 149.184 389.354V389.121C149.184 388.387 149.323 387.733 149.601 387.159C149.883 386.58 150.275 386.129 150.777 385.806C151.282 385.478 151.829 385.313 152.417 385.313C153.379 385.313 154.126 385.63 154.659 386.264C155.193 386.897 155.459 387.804 155.459 388.984V389.511H150.448C150.467 390.24 150.679 390.83 151.084 391.281C151.494 391.728 152.014 391.951 152.643 391.951C153.089 391.951 153.468 391.86 153.778 391.678C154.087 391.495 154.359 391.254 154.591 390.953L155.363 391.555C154.744 392.507 153.814 392.983 152.574 392.983ZM152.417 386.353C151.907 386.353 151.478 386.539 151.132 386.913C150.786 387.282 150.571 387.802 150.489 388.472H154.195V388.376C154.158 387.733 153.985 387.237 153.675 386.886C153.365 386.53 152.946 386.353 152.417 386.353ZM158.583 392.847H157.318V382.347H158.583V392.847ZM165.46 392.847C165.387 392.701 165.327 392.441 165.282 392.067C164.694 392.678 163.992 392.983 163.176 392.983C162.447 392.983 161.848 392.778 161.379 392.368C160.914 391.953 160.681 391.429 160.681 390.796C160.681 390.026 160.973 389.429 161.556 389.005C162.144 388.576 162.969 388.362 164.031 388.362H165.261V387.781C165.261 387.339 165.129 386.988 164.865 386.729C164.601 386.464 164.211 386.332 163.696 386.332C163.245 386.332 162.867 386.446 162.561 386.674C162.256 386.902 162.103 387.177 162.103 387.501H160.832C160.832 387.132 160.962 386.776 161.221 386.435C161.486 386.088 161.841 385.815 162.288 385.614C162.739 385.414 163.233 385.313 163.771 385.313C164.623 385.313 165.291 385.528 165.774 385.956C166.257 386.38 166.508 386.965 166.526 387.713V391.117C166.526 391.796 166.613 392.336 166.786 392.737V392.847H165.46ZM163.361 391.883C163.757 391.883 164.133 391.78 164.489 391.575C164.844 391.37 165.102 391.104 165.261 390.775V389.258H164.27C162.721 389.258 161.946 389.711 161.946 390.618C161.946 391.015 162.078 391.325 162.342 391.548C162.607 391.771 162.946 391.883 163.361 391.883ZM170.162 392.847H168.898V382.347H170.162V392.847ZM177.039 392.115C176.547 392.694 175.825 392.983 174.872 392.983C174.084 392.983 173.482 392.756 173.067 392.3C172.657 391.84 172.45 391.16 172.445 390.263V385.45H173.71V390.229C173.71 391.35 174.166 391.91 175.077 391.91C176.043 391.91 176.686 391.55 177.005 390.83V385.45H178.27V392.847H177.066L177.039 392.115ZM185.419 385.45L185.454 386.271C185.996 385.632 186.727 385.313 187.648 385.313C188.682 385.313 189.387 385.71 189.76 386.503C190.006 386.147 190.325 385.86 190.717 385.642C191.114 385.423 191.581 385.313 192.119 385.313C193.741 385.313 194.566 386.173 194.593 387.891V392.847H193.329V387.966C193.329 387.437 193.208 387.043 192.966 386.783C192.725 386.519 192.319 386.387 191.75 386.387C191.28 386.387 190.89 386.528 190.581 386.811C190.271 387.089 190.091 387.465 190.041 387.938V392.847H188.769V388C188.769 386.924 188.243 386.387 187.19 386.387C186.361 386.387 185.793 386.74 185.488 387.446V392.847H184.223V385.45H185.419ZM199.857 392.983C198.854 392.983 198.038 392.655 197.409 391.999C196.781 391.338 196.466 390.456 196.466 389.354V389.121C196.466 388.387 196.605 387.733 196.883 387.159C197.166 386.58 197.558 386.129 198.059 385.806C198.565 385.478 199.112 385.313 199.699 385.313C200.661 385.313 201.408 385.63 201.942 386.264C202.475 386.897 202.741 387.804 202.741 388.984V389.511H197.731C197.749 390.24 197.961 390.83 198.366 391.281C198.777 391.728 199.296 391.951 199.925 391.951C200.372 391.951 200.75 391.86 201.06 391.678C201.37 391.495 201.641 391.254 201.873 390.953L202.646 391.555C202.026 392.507 201.096 392.983 199.857 392.983ZM199.699 386.353C199.189 386.353 198.761 386.539 198.414 386.913C198.068 387.282 197.854 387.802 197.772 388.472H201.477V388.376C201.44 387.733 201.267 387.237 200.957 386.886C200.647 386.53 200.228 386.353 199.699 386.353ZM205.687 385.45L205.728 386.38C206.294 385.669 207.032 385.313 207.943 385.313C209.506 385.313 210.295 386.195 210.309 387.959V392.847H209.044V387.952C209.039 387.419 208.916 387.025 208.675 386.77C208.438 386.514 208.066 386.387 207.561 386.387C207.15 386.387 206.79 386.496 206.48 386.715C206.171 386.934 205.929 387.221 205.756 387.576V392.847H204.491V385.45H205.687ZM213.87 392.847H212.605V385.45H213.87V392.847ZM212.503 383.488C212.503 383.283 212.564 383.11 212.687 382.969C212.815 382.827 213.002 382.757 213.248 382.757C213.494 382.757 213.681 382.827 213.808 382.969C213.936 383.11 214 383.283 214 383.488C214 383.693 213.936 383.864 213.808 384.001C213.681 384.138 213.494 384.206 213.248 384.206C213.002 384.206 212.815 384.138 212.687 384.001C212.564 383.864 212.503 383.693 212.503 383.488ZM217.376 385.45L217.417 386.38C217.982 385.669 218.721 385.313 219.632 385.313C221.195 385.313 221.984 386.195 221.997 387.959V392.847H220.733V387.952C220.728 387.419 220.605 387.025 220.364 386.77C220.127 386.514 219.755 386.387 219.249 386.387C218.839 386.387 218.479 386.496 218.169 386.715C217.859 386.934 217.618 387.221 217.445 387.576V392.847H216.18V385.45H217.376ZM223.884 389.087C223.884 387.934 224.151 387.018 224.684 386.339C225.217 385.655 225.923 385.313 226.803 385.313C227.705 385.313 228.409 385.632 228.915 386.271L228.977 385.45H230.132V392.669C230.132 393.626 229.847 394.38 229.277 394.932C228.712 395.483 227.951 395.759 226.994 395.759C226.461 395.759 225.939 395.645 225.429 395.417C224.918 395.189 224.529 394.877 224.26 394.48L224.916 393.722C225.458 394.392 226.122 394.727 226.905 394.727C227.521 394.727 227.999 394.553 228.341 394.207C228.687 393.861 228.86 393.373 228.86 392.744V392.108C228.355 392.692 227.664 392.983 226.789 392.983C225.923 392.983 225.221 392.635 224.684 391.938C224.151 391.24 223.884 390.29 223.884 389.087ZM225.155 389.23C225.155 390.064 225.326 390.721 225.668 391.199C226.01 391.673 226.488 391.91 227.104 391.91C227.901 391.91 228.487 391.548 228.86 390.823V387.446C228.473 386.74 227.892 386.387 227.117 386.387C226.502 386.387 226.021 386.626 225.675 387.104C225.329 387.583 225.155 388.292 225.155 389.23ZM234.39 389.422L233.598 390.249V392.847H232.333V382.347H233.598V388.697L234.274 387.884L236.578 385.45H238.116L235.238 388.54L238.451 392.847H236.968L234.39 389.422ZM244.268 392.847C244.195 392.701 244.136 392.441 244.09 392.067C243.503 392.678 242.801 392.983 241.985 392.983C241.256 392.983 240.656 392.778 240.187 392.368C239.722 391.953 239.49 391.429 239.49 390.796C239.49 390.026 239.781 389.429 240.365 389.005C240.953 388.576 241.778 388.362 242.839 388.362H244.07V387.781C244.07 387.339 243.938 386.988 243.673 386.729C243.409 386.464 243.019 386.332 242.504 386.332C242.053 386.332 241.675 386.446 241.37 386.674C241.064 386.902 240.912 387.177 240.912 387.501H239.64C239.64 387.132 239.77 386.776 240.03 386.435C240.294 386.088 240.65 385.815 241.096 385.614C241.547 385.414 242.042 385.313 242.58 385.313C243.432 385.313 244.1 385.528 244.583 385.956C245.066 386.38 245.316 386.965 245.335 387.713V391.117C245.335 391.796 245.421 392.336 245.594 392.737V392.847H244.268ZM242.169 391.883C242.566 391.883 242.942 391.78 243.297 391.575C243.653 391.37 243.91 391.104 244.07 390.775V389.258H243.079C241.529 389.258 240.754 389.711 240.754 390.618C240.754 391.015 240.887 391.325 241.151 391.548C241.415 391.771 241.755 391.883 242.169 391.883ZM249.313 383.659V385.45H250.694V386.428H249.313V391.015C249.313 391.311 249.374 391.534 249.497 391.685C249.62 391.83 249.83 391.903 250.126 391.903C250.272 391.903 250.473 391.876 250.728 391.821V392.847C250.395 392.938 250.072 392.983 249.757 392.983C249.192 392.983 248.766 392.812 248.479 392.471C248.192 392.129 248.048 391.644 248.048 391.015V386.428H246.701V385.45H248.048V383.659H249.313ZM254.521 389.422L253.729 390.249V392.847H252.464V382.347H253.729V388.697L254.405 387.884L256.709 385.45H258.247L255.369 388.54L258.582 392.847H257.099L254.521 389.422ZM264.399 392.847C264.326 392.701 264.267 392.441 264.221 392.067C263.634 392.678 262.932 392.983 262.116 392.983C261.387 392.983 260.787 392.778 260.318 392.368C259.853 391.953 259.621 391.429 259.621 390.796C259.621 390.026 259.912 389.429 260.496 389.005C261.084 388.576 261.909 388.362 262.97 388.362H264.201V387.781C264.201 387.339 264.069 386.988 263.804 386.729C263.54 386.464 263.15 386.332 262.635 386.332C262.184 386.332 261.806 386.446 261.501 386.674C261.195 386.902 261.043 387.177 261.043 387.501H259.771C259.771 387.132 259.901 386.776 260.161 386.435C260.425 386.088 260.781 385.815 261.227 385.614C261.678 385.414 262.173 385.313 262.711 385.313C263.563 385.313 264.231 385.528 264.714 385.956C265.197 386.38 265.447 386.965 265.466 387.713V391.117C265.466 391.796 265.552 392.336 265.725 392.737V392.847H264.399ZM262.301 391.883C262.697 391.883 263.073 391.78 263.428 391.575C263.784 391.37 264.041 391.104 264.201 390.775V389.258H263.21C261.66 389.258 260.885 389.711 260.885 390.618C260.885 391.015 261.018 391.325 261.282 391.548C261.546 391.771 261.886 391.883 262.301 391.883ZM268.924 385.45L268.965 386.38C269.53 385.669 270.269 385.313 271.18 385.313C272.743 385.313 273.532 386.195 273.545 387.959V392.847H272.281V387.952C272.276 387.419 272.153 387.025 271.912 386.77C271.675 386.514 271.303 386.387 270.797 386.387C270.387 386.387 270.027 386.496 269.717 386.715C269.407 386.934 269.166 387.221 268.993 387.576V392.847H267.728V385.45H268.924ZM285.733 389.23C285.733 390.356 285.476 391.263 284.961 391.951C284.446 392.639 283.749 392.983 282.869 392.983C281.971 392.983 281.265 392.699 280.75 392.129V395.69H279.485V385.45H280.641L280.702 386.271C281.217 385.632 281.933 385.313 282.849 385.313C283.737 385.313 284.439 385.648 284.954 386.318C285.474 386.988 285.733 387.92 285.733 389.114V389.23ZM284.469 389.087C284.469 388.253 284.291 387.594 283.935 387.111C283.58 386.628 283.092 386.387 282.473 386.387C281.707 386.387 281.133 386.726 280.75 387.405V390.939C281.128 391.614 281.707 391.951 282.486 391.951C283.092 391.951 283.573 391.712 283.929 391.233C284.289 390.75 284.469 390.035 284.469 389.087ZM290.696 392.983C289.693 392.983 288.878 392.655 288.249 391.999C287.62 391.338 287.305 390.456 287.305 389.354V389.121C287.305 388.387 287.444 387.733 287.722 387.159C288.005 386.58 288.397 386.129 288.898 385.806C289.404 385.478 289.951 385.313 290.539 385.313C291.5 385.313 292.248 385.63 292.781 386.264C293.314 386.897 293.581 387.804 293.581 388.984V389.511H288.57C288.588 390.24 288.8 390.83 289.206 391.281C289.616 391.728 290.135 391.951 290.764 391.951C291.211 391.951 291.589 391.86 291.899 391.678C292.209 391.495 292.48 391.254 292.713 390.953L293.485 391.555C292.865 392.507 291.935 392.983 290.696 392.983ZM290.539 386.353C290.028 386.353 289.6 386.539 289.254 386.913C288.907 387.282 288.693 387.802 288.611 388.472H292.316V388.376C292.28 387.733 292.106 387.237 291.796 386.886C291.487 386.53 291.067 386.353 290.539 386.353ZM296.704 392.847H295.44V382.347H296.704V392.847ZM303.581 392.847C303.508 392.701 303.449 392.441 303.403 392.067C302.815 392.678 302.114 392.983 301.298 392.983C300.569 392.983 299.969 392.778 299.5 392.368C299.035 391.953 298.803 391.429 298.803 390.796C298.803 390.026 299.094 389.429 299.678 389.005C300.266 388.576 301.091 388.362 302.152 388.362H303.383V387.781C303.383 387.339 303.251 386.988 302.986 386.729C302.722 386.464 302.332 386.332 301.817 386.332C301.366 386.332 300.988 386.446 300.683 386.674C300.377 386.902 300.225 387.177 300.225 387.501H298.953C298.953 387.132 299.083 386.776 299.343 386.435C299.607 386.088 299.963 385.815 300.409 385.614C300.86 385.414 301.355 385.313 301.893 385.313C302.745 385.313 303.412 385.528 303.896 385.956C304.379 386.38 304.629 386.965 304.648 387.713V391.117C304.648 391.796 304.734 392.336 304.907 392.737V392.847H303.581ZM301.482 391.883C301.879 391.883 302.255 391.78 302.61 391.575C302.966 391.37 303.223 391.104 303.383 390.775V389.258H302.392C300.842 389.258 300.067 389.711 300.067 390.618C300.067 391.015 300.2 391.325 300.464 391.548C300.728 391.771 301.068 391.883 301.482 391.883ZM309.22 390.994L310.943 385.45H312.297L309.323 393.988C308.863 395.219 308.131 395.834 307.129 395.834L306.889 395.813L306.418 395.725V394.699L306.76 394.727C307.188 394.727 307.521 394.64 307.758 394.467C307.999 394.294 308.197 393.977 308.352 393.517L308.633 392.765L305.994 385.45H307.375L309.22 390.994ZM318.168 392.847C318.096 392.701 318.036 392.441 317.991 392.067C317.403 392.678 316.701 392.983 315.885 392.983C315.156 392.983 314.557 392.778 314.087 392.368C313.623 391.953 313.39 391.429 313.39 390.796C313.39 390.026 313.682 389.429 314.265 389.005C314.853 388.576 315.678 388.362 316.74 388.362H317.97V387.781C317.97 387.339 317.838 386.988 317.574 386.729C317.309 386.464 316.92 386.332 316.405 386.332C315.954 386.332 315.575 386.446 315.27 386.674C314.965 386.902 314.812 387.177 314.812 387.501H313.54C313.54 387.132 313.67 386.776 313.93 386.435C314.194 386.088 314.55 385.815 314.997 385.614C315.448 385.414 315.942 385.313 316.48 385.313C317.332 385.313 318 385.528 318.483 385.956C318.966 386.38 319.217 386.965 319.235 387.713V391.117C319.235 391.796 319.321 392.336 319.495 392.737V392.847H318.168ZM316.07 391.883C316.466 391.883 316.842 391.78 317.198 391.575C317.553 391.37 317.811 391.104 317.97 390.775V389.258H316.979C315.429 389.258 314.655 389.711 314.655 390.618C314.655 391.015 314.787 391.325 315.051 391.548C315.316 391.771 315.655 391.883 316.07 391.883ZM322.694 385.45L322.735 386.38C323.3 385.669 324.038 385.313 324.949 385.313C326.513 385.313 327.301 386.195 327.315 387.959V392.847H326.05V387.952C326.045 387.419 325.922 387.025 325.681 386.77C325.444 386.514 325.072 386.387 324.567 386.387C324.156 386.387 323.796 386.496 323.487 386.715C323.177 386.934 322.935 387.221 322.762 387.576V392.847H321.497V385.45H322.694ZM334.068 392.847C333.995 392.701 333.936 392.441 333.891 392.067C333.303 392.678 332.601 392.983 331.785 392.983C331.056 392.983 330.457 392.778 329.987 392.368C329.522 391.953 329.29 391.429 329.29 390.796C329.29 390.026 329.582 389.429 330.165 389.005C330.753 388.576 331.578 388.362 332.64 388.362H333.87V387.781C333.87 387.339 333.738 386.988 333.474 386.729C333.209 386.464 332.82 386.332 332.305 386.332C331.853 386.332 331.475 386.446 331.17 386.674C330.865 386.902 330.712 387.177 330.712 387.501H329.44C329.44 387.132 329.57 386.776 329.83 386.435C330.094 386.088 330.45 385.815 330.896 385.614C331.348 385.414 331.842 385.313 332.38 385.313C333.232 385.313 333.9 385.528 334.383 385.956C334.866 386.38 335.116 386.965 335.135 387.713V391.117C335.135 391.796 335.221 392.336 335.394 392.737V392.847H334.068ZM331.97 391.883C332.366 391.883 332.742 391.78 333.098 391.575C333.453 391.37 333.711 391.104 333.87 390.775V389.258H332.879C331.329 389.258 330.555 389.711 330.555 390.618C330.555 391.015 330.687 391.325 330.951 391.548C331.215 391.771 331.555 391.883 331.97 391.883ZM338.593 385.45L338.634 386.38C339.2 385.669 339.938 385.313 340.849 385.313C342.412 385.313 343.201 386.195 343.215 387.959V392.847H341.95V387.952C341.945 387.419 341.822 387.025 341.581 386.77C341.344 386.514 340.972 386.387 340.466 386.387C340.056 386.387 339.696 386.496 339.386 386.715C339.076 386.934 338.835 387.221 338.662 387.576V392.847H337.397V385.45H338.593ZM351.219 389.422L350.426 390.249V392.847H349.161V382.347H350.426V388.697L351.103 387.884L353.406 385.45H354.944L352.066 388.54L355.279 392.847H353.796L351.219 389.422ZM359.463 392.983C358.46 392.983 357.644 392.655 357.015 391.999C356.387 391.338 356.072 390.456 356.072 389.354V389.121C356.072 388.387 356.211 387.733 356.489 387.159C356.772 386.58 357.164 386.129 357.665 385.806C358.171 385.478 358.718 385.313 359.305 385.313C360.267 385.313 361.014 385.63 361.548 386.264C362.081 386.897 362.347 387.804 362.347 388.984V389.511H357.337C357.355 390.24 357.567 390.83 357.972 391.281C358.383 391.728 358.902 391.951 359.531 391.951C359.978 391.951 360.356 391.86 360.666 391.678C360.976 391.495 361.247 391.254 361.479 390.953L362.252 391.555C361.632 392.507 360.702 392.983 359.463 392.983ZM359.305 386.353C358.795 386.353 358.367 386.539 358.02 386.913C357.674 387.282 357.46 387.802 357.378 388.472H361.083V388.376C361.046 387.733 360.873 387.237 360.563 386.886C360.253 386.53 359.834 386.353 359.305 386.353ZM370.345 389.23C370.345 390.356 370.088 391.263 369.573 391.951C369.058 392.639 368.361 392.983 367.481 392.983C366.583 392.983 365.877 392.699 365.362 392.129V395.69H364.097V385.45H365.252L365.314 386.271C365.829 385.632 366.544 385.313 367.46 385.313C368.349 385.313 369.051 385.648 369.566 386.318C370.085 386.988 370.345 387.92 370.345 389.114V389.23ZM369.081 389.087C369.081 388.253 368.903 387.594 368.547 387.111C368.192 386.628 367.704 386.387 367.085 386.387C366.319 386.387 365.745 386.726 365.362 387.405V390.939C365.74 391.614 366.319 391.951 367.098 391.951C367.704 391.951 368.185 391.712 368.541 391.233C368.901 390.75 369.081 390.035 369.081 389.087ZM376.805 392.847C376.732 392.701 376.673 392.441 376.627 392.067C376.039 392.678 375.337 392.983 374.522 392.983C373.793 392.983 373.193 392.778 372.724 392.368C372.259 391.953 372.027 391.429 372.027 390.796C372.027 390.026 372.318 389.429 372.902 389.005C373.49 388.576 374.314 388.362 375.376 388.362H376.607V387.781C376.607 387.339 376.475 386.988 376.21 386.729C375.946 386.464 375.556 386.332 375.041 386.332C374.59 386.332 374.212 386.446 373.906 386.674C373.601 386.902 373.448 387.177 373.448 387.501H372.177C372.177 387.132 372.307 386.776 372.567 386.435C372.831 386.088 373.186 385.815 373.633 385.614C374.084 385.414 374.579 385.313 375.116 385.313C375.969 385.313 376.636 385.528 377.119 385.956C377.602 386.38 377.853 386.965 377.871 387.713V391.117C377.871 391.796 377.958 392.336 378.131 392.737V392.847H376.805ZM374.706 391.883C375.103 391.883 375.479 391.78 375.834 391.575C376.19 391.37 376.447 391.104 376.607 390.775V389.258H375.615C374.066 389.258 373.291 389.711 373.291 390.618C373.291 391.015 373.423 391.325 373.688 391.548C373.952 391.771 374.292 391.883 374.706 391.883ZM379.826 389.087C379.826 387.952 380.095 387.041 380.633 386.353C381.171 385.66 381.875 385.313 382.745 385.313C383.611 385.313 384.297 385.61 384.803 386.202V382.347H386.067V392.847H384.905L384.844 392.054C384.338 392.674 383.634 392.983 382.731 392.983C381.875 392.983 381.175 392.632 380.633 391.931C380.095 391.229 379.826 390.313 379.826 389.183V389.087ZM381.091 389.23C381.091 390.069 381.264 390.725 381.61 391.199C381.957 391.673 382.435 391.91 383.046 391.91C383.848 391.91 384.434 391.55 384.803 390.83V387.433C384.424 386.735 383.843 386.387 383.06 386.387C382.44 386.387 381.957 386.626 381.61 387.104C381.264 387.583 381.091 388.292 381.091 389.23ZM392.883 392.847C392.81 392.701 392.75 392.441 392.705 392.067C392.117 392.678 391.415 392.983 390.599 392.983C389.87 392.983 389.271 392.778 388.801 392.368C388.337 391.953 388.104 391.429 388.104 390.796C388.104 390.026 388.396 389.429 388.979 389.005C389.567 388.576 390.392 388.362 391.454 388.362H392.684V387.781C392.684 387.339 392.552 386.988 392.288 386.729C392.023 386.464 391.634 386.332 391.119 386.332C390.668 386.332 390.289 386.446 389.984 386.674C389.679 386.902 389.526 387.177 389.526 387.501H388.255C388.255 387.132 388.384 386.776 388.644 386.435C388.909 386.088 389.264 385.815 389.711 385.614C390.162 385.414 390.656 385.313 391.194 385.313C392.046 385.313 392.714 385.528 393.197 385.956C393.68 386.38 393.931 386.965 393.949 387.713V391.117C393.949 391.796 394.036 392.336 394.209 392.737V392.847H392.883ZM390.784 391.883C391.18 391.883 391.556 391.78 391.912 391.575C392.267 391.37 392.525 391.104 392.684 390.775V389.258H391.693C390.144 389.258 389.369 389.711 389.369 390.618C389.369 391.015 389.501 391.325 389.765 391.548C390.03 391.771 390.369 391.883 390.784 391.883ZM407.812 392.847H406.492L401.482 385.177V392.847H400.162V382.894H401.482L406.506 390.598V382.894H407.812V392.847ZM414.791 392.847C414.718 392.701 414.659 392.441 414.613 392.067C414.025 392.678 413.323 392.983 412.508 392.983C411.778 392.983 411.179 392.778 410.71 392.368C410.245 391.953 410.013 391.429 410.013 390.796C410.013 390.026 410.304 389.429 410.888 389.005C411.475 388.576 412.3 388.362 413.362 388.362H414.593V387.781C414.593 387.339 414.46 386.988 414.196 386.729C413.932 386.464 413.542 386.332 413.027 386.332C412.576 386.332 412.198 386.446 411.892 386.674C411.587 386.902 411.434 387.177 411.434 387.501H410.163C410.163 387.132 410.293 386.776 410.553 386.435C410.817 386.088 411.172 385.815 411.619 385.614C412.07 385.414 412.565 385.313 413.102 385.313C413.955 385.313 414.622 385.528 415.105 385.956C415.588 386.38 415.839 386.965 415.857 387.713V391.117C415.857 391.796 415.944 392.336 416.117 392.737V392.847H414.791ZM412.692 391.883C413.089 391.883 413.465 391.78 413.82 391.575C414.176 391.37 414.433 391.104 414.593 390.775V389.258H413.601C412.052 389.258 411.277 389.711 411.277 390.618C411.277 391.015 411.409 391.325 411.674 391.548C411.938 391.771 412.278 391.883 412.692 391.883ZM422.426 390.885C422.426 390.543 422.296 390.279 422.037 390.092C421.781 389.9 421.333 389.736 420.69 389.6C420.052 389.463 419.544 389.299 419.166 389.107C418.792 388.916 418.514 388.688 418.332 388.424C418.154 388.16 418.065 387.845 418.065 387.48C418.065 386.874 418.32 386.362 418.831 385.942C419.346 385.523 420.002 385.313 420.799 385.313C421.638 385.313 422.317 385.53 422.836 385.963C423.361 386.396 423.623 386.95 423.623 387.624H422.351C422.351 387.278 422.203 386.979 421.907 386.729C421.615 386.478 421.246 386.353 420.799 386.353C420.339 386.353 419.979 386.453 419.719 386.653C419.46 386.854 419.33 387.116 419.33 387.439C419.33 387.745 419.45 387.975 419.692 388.13C419.933 388.285 420.369 388.433 420.998 388.574C421.631 388.715 422.144 388.884 422.536 389.08C422.928 389.276 423.217 389.513 423.404 389.791C423.595 390.064 423.691 390.399 423.691 390.796C423.691 391.457 423.427 391.988 422.898 392.389C422.369 392.785 421.683 392.983 420.84 392.983C420.248 392.983 419.724 392.879 419.268 392.669C418.812 392.459 418.455 392.168 418.195 391.794C417.94 391.416 417.812 391.008 417.812 390.57H419.077C419.1 390.994 419.268 391.331 419.583 391.582C419.902 391.828 420.321 391.951 420.84 391.951C421.319 391.951 421.702 391.855 421.989 391.664C422.28 391.468 422.426 391.208 422.426 390.885ZM430.185 392.847C430.112 392.701 430.053 392.441 430.007 392.067C429.419 392.678 428.717 392.983 427.902 392.983C427.172 392.983 426.573 392.778 426.104 392.368C425.639 391.953 425.407 391.429 425.407 390.796C425.407 390.026 425.698 389.429 426.282 389.005C426.869 388.576 427.694 388.362 428.756 388.362H429.987V387.781C429.987 387.339 429.854 386.988 429.59 386.729C429.326 386.464 428.936 386.332 428.421 386.332C427.97 386.332 427.592 386.446 427.286 386.674C426.981 386.902 426.828 387.177 426.828 387.501H425.557C425.557 387.132 425.687 386.776 425.947 386.435C426.211 386.088 426.566 385.815 427.013 385.614C427.464 385.414 427.959 385.313 428.496 385.313C429.349 385.313 430.016 385.528 430.499 385.956C430.982 386.38 431.233 386.965 431.251 387.713V391.117C431.251 391.796 431.338 392.336 431.511 392.737V392.847H430.185ZM428.086 391.883C428.483 391.883 428.859 391.78 429.214 391.575C429.57 391.37 429.827 391.104 429.987 390.775V389.258H428.995C427.446 389.258 426.671 389.711 426.671 390.618C426.671 391.015 426.803 391.325 427.068 391.548C427.332 391.771 427.671 391.883 428.086 391.883ZM439.775 389.23C439.775 390.361 439.516 391.27 438.996 391.958C438.477 392.642 437.779 392.983 436.904 392.983C435.97 392.983 435.248 392.653 434.737 391.992L434.676 392.847H433.514V382.347H434.778V386.264C435.289 385.63 435.993 385.313 436.891 385.313C437.788 385.313 438.493 385.653 439.003 386.332C439.518 387.011 439.775 387.941 439.775 389.121V389.23ZM438.511 389.087C438.511 388.226 438.344 387.56 438.012 387.091C437.679 386.621 437.201 386.387 436.576 386.387C435.742 386.387 435.143 386.774 434.778 387.549V390.748C435.166 391.523 435.77 391.91 436.59 391.91C437.196 391.91 437.668 391.675 438.005 391.206C438.342 390.737 438.511 390.03 438.511 389.087ZM446.221 392.847C446.148 392.701 446.089 392.441 446.044 392.067C445.456 392.678 444.754 392.983 443.938 392.983C443.209 392.983 442.61 392.778 442.14 392.368C441.676 391.953 441.443 391.429 441.443 390.796C441.443 390.026 441.735 389.429 442.318 389.005C442.906 388.576 443.731 388.362 444.793 388.362H446.023V387.781C446.023 387.339 445.891 386.988 445.627 386.729C445.362 386.464 444.973 386.332 444.458 386.332C444.007 386.332 443.628 386.446 443.323 386.674C443.018 386.902 442.865 387.177 442.865 387.501H441.593C441.593 387.132 441.723 386.776 441.983 386.435C442.247 386.088 442.603 385.815 443.05 385.614C443.501 385.414 443.995 385.313 444.533 385.313C445.385 385.313 446.053 385.528 446.536 385.956C447.019 386.38 447.27 386.965 447.288 387.713V391.117C447.288 391.796 447.374 392.336 447.548 392.737V392.847H446.221ZM444.123 391.883C444.519 391.883 444.895 391.78 445.251 391.575C445.606 391.37 445.864 391.104 446.023 390.775V389.258H445.032C443.482 389.258 442.708 389.711 442.708 390.618C442.708 391.015 442.84 391.325 443.104 391.548C443.369 391.771 443.708 391.883 444.123 391.883ZM450.815 386.346C451.375 385.658 452.105 385.313 453.002 385.313C454.566 385.313 455.354 386.195 455.368 387.959V392.847H454.103V387.952C454.098 387.419 453.975 387.025 453.734 386.77C453.497 386.514 453.125 386.387 452.62 386.387C452.209 386.387 451.849 386.496 451.539 386.715C451.23 386.934 450.988 387.221 450.815 387.576V392.847H449.55V382.347H450.815V386.346ZM192.526 416.246H188.212V419.773H193.223V420.847H186.9V410.894H193.155V411.974H188.212V415.173H192.526V416.246ZM194.494 417.087C194.494 415.925 194.761 415.007 195.294 414.332C195.827 413.653 196.543 413.313 197.441 413.313C198.316 413.313 199.006 413.607 199.512 414.195L199.567 413.45H200.729V423.69H199.464V420.163C198.954 420.71 198.275 420.983 197.427 420.983C196.534 420.983 195.82 420.637 195.287 419.944C194.759 419.247 194.494 418.324 194.494 417.176V417.087ZM195.759 417.23C195.759 418.078 195.937 418.743 196.292 419.227C196.652 419.71 197.135 419.951 197.741 419.951C198.493 419.951 199.068 419.618 199.464 418.953V415.33C199.063 414.678 198.493 414.353 197.755 414.353C197.144 414.353 196.659 414.596 196.299 415.084C195.939 415.567 195.759 416.283 195.759 417.23ZM207.605 420.115C207.113 420.694 206.391 420.983 205.438 420.983C204.65 420.983 204.048 420.756 203.634 420.3C203.224 419.84 203.016 419.16 203.012 418.263V413.45H204.276V418.229C204.276 419.35 204.732 419.91 205.643 419.91C206.61 419.91 207.252 419.55 207.571 418.83V413.45H208.836V420.847H207.633L207.605 420.115ZM212.418 420.847H211.153V413.45H212.418V420.847ZM211.05 411.488C211.05 411.283 211.112 411.11 211.235 410.969C211.363 410.827 211.549 410.757 211.796 410.757C212.042 410.757 212.228 410.827 212.356 410.969C212.484 411.11 212.547 411.283 212.547 411.488C212.547 411.693 212.484 411.864 212.356 412.001C212.228 412.138 212.042 412.206 211.796 412.206C211.549 412.206 211.363 412.138 211.235 412.001C211.112 411.864 211.05 411.693 211.05 411.488ZM216.444 411.659V413.45H217.825V414.428H216.444V419.015C216.444 419.311 216.505 419.534 216.628 419.685C216.751 419.83 216.961 419.903 217.257 419.903C217.403 419.903 217.603 419.876 217.859 419.821V420.847C217.526 420.938 217.202 420.983 216.888 420.983C216.323 420.983 215.897 420.812 215.61 420.471C215.323 420.129 215.179 419.644 215.179 419.015V414.428H213.832V413.45H215.179V411.659H216.444ZM222.008 418.994L223.73 413.45H225.084L222.11 421.988C221.65 423.219 220.919 423.834 219.916 423.834L219.677 423.813L219.205 423.725V422.699L219.547 422.727C219.975 422.727 220.308 422.64 220.545 422.467C220.786 422.294 220.985 421.977 221.14 421.517L221.42 420.765L218.781 413.45H220.162L222.008 418.994ZM231.769 419.773H236.486V420.847H230.45V410.894H231.769V419.773ZM239.439 420.847H238.174V413.45H239.439V420.847ZM238.071 411.488C238.071 411.283 238.133 411.11 238.256 410.969C238.384 410.827 238.571 410.757 238.817 410.757C239.063 410.757 239.25 410.827 239.377 410.969C239.505 411.11 239.569 411.283 239.569 411.488C239.569 411.693 239.505 411.864 239.377 412.001C239.25 412.138 239.063 412.206 238.817 412.206C238.571 412.206 238.384 412.138 238.256 412.001C238.133 411.864 238.071 411.693 238.071 411.488ZM242.371 420.847V414.428H241.202V413.45H242.371V412.691C242.371 411.898 242.583 411.285 243.007 410.853C243.431 410.42 244.03 410.203 244.805 410.203C245.096 410.203 245.386 410.242 245.673 410.319L245.604 411.345C245.39 411.304 245.162 411.283 244.921 411.283C244.511 411.283 244.194 411.404 243.971 411.646C243.747 411.882 243.636 412.224 243.636 412.671V413.45H245.215V414.428H243.636V420.847H242.371ZM249.801 420.983C248.799 420.983 247.983 420.655 247.354 419.999C246.725 419.338 246.411 418.456 246.411 417.354V417.121C246.411 416.387 246.55 415.733 246.828 415.159C247.11 414.58 247.502 414.129 248.004 413.806C248.509 413.478 249.056 413.313 249.644 413.313C250.606 413.313 251.353 413.63 251.886 414.264C252.42 414.897 252.686 415.804 252.686 416.984V417.511H247.675C247.694 418.24 247.906 418.83 248.311 419.281C248.721 419.728 249.241 419.951 249.87 419.951C250.316 419.951 250.695 419.86 251.005 419.678C251.314 419.495 251.586 419.254 251.818 418.953L252.59 419.555C251.971 420.507 251.041 420.983 249.801 420.983ZM249.644 414.353C249.134 414.353 248.705 414.539 248.359 414.913C248.013 415.282 247.798 415.802 247.716 416.472H251.422V416.376C251.385 415.733 251.212 415.237 250.902 414.886C250.592 414.53 250.173 414.353 249.644 414.353ZM259.795 420.847H258.482V410.894H259.795V420.847ZM263.479 413.45L263.52 414.38C264.085 413.669 264.824 413.313 265.735 413.313C267.298 413.313 268.087 414.195 268.1 415.959V420.847H266.836V415.952C266.831 415.419 266.708 415.025 266.467 414.77C266.23 414.514 265.858 414.387 265.352 414.387C264.942 414.387 264.582 414.496 264.272 414.715C263.962 414.934 263.721 415.221 263.548 415.576V420.847H262.283V413.45H263.479ZM269.98 417.087C269.98 415.952 270.249 415.041 270.787 414.353C271.324 413.66 272.028 413.313 272.899 413.313C273.765 413.313 274.451 413.61 274.957 414.202V410.347H276.221V420.847H275.059L274.998 420.054C274.492 420.674 273.788 420.983 272.885 420.983C272.028 420.983 271.329 420.632 270.787 419.931C270.249 419.229 269.98 418.313 269.98 417.183V417.087ZM271.245 417.23C271.245 418.069 271.418 418.725 271.764 419.199C272.111 419.673 272.589 419.91 273.2 419.91C274.002 419.91 274.587 419.55 274.957 418.83V415.433C274.578 414.735 273.997 414.387 273.213 414.387C272.594 414.387 272.111 414.626 271.764 415.104C271.418 415.583 271.245 416.292 271.245 417.23ZM278.135 417.08C278.135 416.355 278.276 415.704 278.559 415.125C278.846 414.546 279.242 414.1 279.748 413.785C280.259 413.471 280.84 413.313 281.491 413.313C282.499 413.313 283.312 413.662 283.932 414.359C284.556 415.057 284.868 415.984 284.868 417.142V417.23C284.868 417.951 284.729 418.598 284.451 419.172C284.178 419.742 283.784 420.186 283.269 420.505C282.758 420.824 282.17 420.983 281.505 420.983C280.503 420.983 279.689 420.635 279.065 419.938C278.445 419.24 278.135 418.317 278.135 417.169V417.08ZM279.406 417.23C279.406 418.051 279.596 418.709 279.974 419.206C280.357 419.703 280.867 419.951 281.505 419.951C282.148 419.951 282.658 419.701 283.036 419.199C283.415 418.693 283.604 417.987 283.604 417.08C283.604 416.269 283.41 415.613 283.023 415.111C282.64 414.605 282.129 414.353 281.491 414.353C280.867 414.353 280.364 414.601 279.981 415.098C279.598 415.594 279.406 416.305 279.406 417.23ZM287.931 413.45L287.972 414.38C288.537 413.669 289.275 413.313 290.186 413.313C291.75 413.313 292.538 414.195 292.552 415.959V420.847H291.287V415.952C291.283 415.419 291.159 415.025 290.918 414.77C290.681 414.514 290.31 414.387 289.804 414.387C289.394 414.387 289.033 414.496 288.724 414.715C288.414 414.934 288.172 415.221 287.999 415.576V420.847H286.734V413.45H287.931ZM297.808 420.983C296.806 420.983 295.99 420.655 295.361 419.999C294.732 419.338 294.418 418.456 294.418 417.354V417.121C294.418 416.387 294.557 415.733 294.835 415.159C295.117 414.58 295.509 414.129 296.01 413.806C296.516 413.478 297.063 413.313 297.651 413.313C298.613 413.313 299.36 413.63 299.893 414.264C300.426 414.897 300.693 415.804 300.693 416.984V417.511H295.682C295.701 418.24 295.912 418.83 296.318 419.281C296.728 419.728 297.248 419.951 297.877 419.951C298.323 419.951 298.702 419.86 299.011 419.678C299.321 419.495 299.592 419.254 299.825 418.953L300.597 419.555C299.978 420.507 299.048 420.983 297.808 420.983ZM297.651 414.353C297.141 414.353 296.712 414.539 296.366 414.913C296.02 415.282 295.805 415.802 295.723 416.472H299.428V416.376C299.392 415.733 299.219 415.237 298.909 414.886C298.599 414.53 298.18 414.353 297.651 414.353ZM306.749 418.885C306.749 418.543 306.62 418.279 306.36 418.092C306.105 417.9 305.656 417.736 305.013 417.6C304.375 417.463 303.867 417.299 303.489 417.107C303.115 416.916 302.837 416.688 302.655 416.424C302.477 416.16 302.388 415.845 302.388 415.48C302.388 414.874 302.643 414.362 303.154 413.942C303.669 413.523 304.325 413.313 305.122 413.313C305.961 413.313 306.64 413.53 307.16 413.963C307.684 414.396 307.946 414.95 307.946 415.624H306.674C306.674 415.278 306.526 414.979 306.23 414.729C305.938 414.478 305.569 414.353 305.122 414.353C304.662 414.353 304.302 414.453 304.042 414.653C303.783 414.854 303.653 415.116 303.653 415.439C303.653 415.745 303.774 415.975 304.015 416.13C304.257 416.285 304.692 416.433 305.321 416.574C305.954 416.715 306.467 416.884 306.859 417.08C307.251 417.276 307.54 417.513 307.727 417.791C307.918 418.064 308.014 418.399 308.014 418.796C308.014 419.457 307.75 419.988 307.221 420.389C306.692 420.785 306.007 420.983 305.163 420.983C304.571 420.983 304.047 420.879 303.591 420.669C303.135 420.459 302.778 420.168 302.518 419.794C302.263 419.416 302.135 419.008 302.135 418.57H303.4C303.423 418.994 303.591 419.331 303.906 419.582C304.225 419.828 304.644 419.951 305.163 419.951C305.642 419.951 306.025 419.855 306.312 419.664C306.604 419.468 306.749 419.208 306.749 418.885ZM311.316 420.847H310.051V413.45H311.316V420.847ZM309.948 411.488C309.948 411.283 310.01 411.11 310.133 410.969C310.261 410.827 310.447 410.757 310.693 410.757C310.94 410.757 311.126 410.827 311.254 410.969C311.382 411.11 311.445 411.283 311.445 411.488C311.445 411.693 311.382 411.864 311.254 412.001C311.126 412.138 310.94 412.206 310.693 412.206C310.447 412.206 310.261 412.138 310.133 412.001C310.01 411.864 309.948 411.693 309.948 411.488ZM318.192 420.847C318.119 420.701 318.06 420.441 318.014 420.067C317.427 420.678 316.725 420.983 315.909 420.983C315.18 420.983 314.581 420.778 314.111 420.368C313.646 419.953 313.414 419.429 313.414 418.796C313.414 418.026 313.706 417.429 314.289 417.005C314.877 416.576 315.702 416.362 316.764 416.362H317.994V415.781C317.994 415.339 317.862 414.988 317.598 414.729C317.333 414.464 316.944 414.332 316.429 414.332C315.977 414.332 315.599 414.446 315.294 414.674C314.988 414.902 314.836 415.177 314.836 415.501H313.564C313.564 415.132 313.694 414.776 313.954 414.435C314.218 414.088 314.574 413.815 315.02 413.614C315.472 413.414 315.966 413.313 316.504 413.313C317.356 413.313 318.024 413.528 318.507 413.956C318.99 414.38 319.24 414.965 319.259 415.713V419.117C319.259 419.796 319.345 420.336 319.518 420.737V420.847H318.192ZM316.094 419.883C316.49 419.883 316.866 419.78 317.222 419.575C317.577 419.37 317.834 419.104 317.994 418.775V417.258H317.003C315.453 417.258 314.679 417.711 314.679 418.618C314.679 419.015 314.811 419.325 315.075 419.548C315.339 419.771 315.679 419.883 316.094 419.883ZM321.548 420.184C321.548 419.965 321.612 419.783 321.74 419.637C321.872 419.491 322.068 419.418 322.328 419.418C322.587 419.418 322.783 419.491 322.916 419.637C323.052 419.783 323.121 419.965 323.121 420.184C323.121 420.393 323.052 420.569 322.916 420.71C322.783 420.851 322.587 420.922 322.328 420.922C322.068 420.922 321.872 420.851 321.74 420.71C321.612 420.569 321.548 420.393 321.548 420.184Z" fill="#B1E4BA"/>
<path d="M119.109 294.972L123.297 285.097H129.219L121.891 299.675V307.847H116.328V299.675L109.016 285.097H114.906L119.109 294.972ZM140.078 306.019C138.964 307.446 137.458 308.159 135.562 308.159C133.708 308.159 132.302 307.623 131.344 306.55C130.396 305.466 129.922 303.914 129.922 301.894V290.94H135.188V301.925C135.188 303.373 135.891 304.097 137.297 304.097C138.505 304.097 139.365 303.664 139.875 302.8V290.94H145.172V307.847H140.234L140.078 306.019ZM154.859 301.55L153.375 303.034V307.847H148.109V283.831H153.375V296.581L153.906 295.878L157.875 290.94H164.188L158.266 297.894L164.578 307.847H158.547L154.859 301.55ZM167.422 313.972L164.766 312.722L165.297 311.659C166.026 310.305 166.406 309.013 166.438 307.784V303.878H170.656L170.641 307.269C170.63 308.466 170.323 309.685 169.719 310.925C169.115 312.164 168.349 313.18 167.422 313.972ZM191.016 303.097C191.016 302.649 190.781 302.289 190.312 302.019C189.844 301.748 188.953 301.466 187.641 301.175C186.328 300.883 185.245 300.503 184.391 300.034C183.536 299.555 182.885 298.977 182.438 298.3C181.99 297.623 181.766 296.847 181.766 295.972C181.766 294.42 182.406 293.144 183.688 292.144C184.969 291.133 186.646 290.628 188.719 290.628C190.948 290.628 192.74 291.133 194.094 292.144C195.448 293.154 196.125 294.482 196.125 296.128H190.844C190.844 294.774 190.13 294.097 188.703 294.097C188.151 294.097 187.688 294.253 187.312 294.565C186.938 294.868 186.75 295.248 186.75 295.706C186.75 296.175 186.979 296.555 187.438 296.847C187.896 297.138 188.625 297.378 189.625 297.565C190.635 297.753 191.521 297.977 192.281 298.237C194.823 299.112 196.094 300.68 196.094 302.94C196.094 304.482 195.406 305.737 194.031 306.706C192.667 307.675 190.896 308.159 188.719 308.159C187.271 308.159 185.979 307.899 184.844 307.378C183.708 306.857 182.823 306.149 182.188 305.253C181.552 304.357 181.234 303.414 181.234 302.425H186.156C186.177 303.206 186.438 303.779 186.938 304.144C187.438 304.498 188.078 304.675 188.859 304.675C189.578 304.675 190.115 304.529 190.469 304.237C190.833 303.946 191.016 303.565 191.016 303.097ZM206.75 308.159C204.156 308.159 202.057 307.388 200.453 305.847C198.849 304.295 198.047 302.279 198.047 299.8V299.362C198.047 297.633 198.365 296.107 199 294.784C199.646 293.461 200.583 292.44 201.812 291.722C203.042 290.993 204.5 290.628 206.188 290.628C208.562 290.628 210.438 291.368 211.812 292.847C213.188 294.315 213.875 296.368 213.875 299.003V301.05H203.406C203.594 301.998 204.005 302.743 204.641 303.284C205.276 303.826 206.099 304.097 207.109 304.097C208.776 304.097 210.078 303.513 211.016 302.347L213.422 305.19C212.766 306.097 211.833 306.821 210.625 307.362C209.427 307.894 208.135 308.159 206.75 308.159ZM206.156 294.69C204.615 294.69 203.698 295.711 203.406 297.753H208.719V297.347C208.74 296.503 208.526 295.852 208.078 295.394C207.63 294.925 206.99 294.69 206.156 294.69ZM215.391 299.269C215.391 297.56 215.672 296.05 216.234 294.737C216.797 293.425 217.604 292.414 218.656 291.706C219.708 290.987 220.932 290.628 222.328 290.628C224.089 290.628 225.464 291.222 226.453 292.409L226.641 290.94H231.422V307.206C231.422 308.696 231.073 309.987 230.375 311.081C229.688 312.185 228.688 313.029 227.375 313.612C226.062 314.206 224.542 314.503 222.812 314.503C221.573 314.503 220.37 314.269 219.203 313.8C218.047 313.331 217.161 312.722 216.547 311.972L218.75 308.878C219.729 310.034 221.021 310.612 222.625 310.612C224.958 310.612 226.125 309.414 226.125 307.019V306.487C225.115 307.602 223.839 308.159 222.297 308.159C220.234 308.159 218.568 307.373 217.297 305.8C216.026 304.216 215.391 302.102 215.391 299.456V299.269ZM220.672 299.597C220.672 300.982 220.932 302.081 221.453 302.894C221.974 303.696 222.703 304.097 223.641 304.097C224.776 304.097 225.604 303.716 226.125 302.956V295.847C225.615 295.076 224.797 294.69 223.672 294.69C222.734 294.69 222 295.112 221.469 295.956C220.938 296.789 220.672 298.003 220.672 299.597ZM242.594 308.159C240 308.159 237.901 307.388 236.297 305.847C234.693 304.295 233.891 302.279 233.891 299.8V299.362C233.891 297.633 234.208 296.107 234.844 294.784C235.49 293.461 236.427 292.44 237.656 291.722C238.885 290.993 240.344 290.628 242.031 290.628C244.406 290.628 246.281 291.368 247.656 292.847C249.031 294.315 249.719 296.368 249.719 299.003V301.05H239.25C239.438 301.998 239.849 302.743 240.484 303.284C241.12 303.826 241.943 304.097 242.953 304.097C244.62 304.097 245.922 303.513 246.859 302.347L249.266 305.19C248.609 306.097 247.677 306.821 246.469 307.362C245.271 307.894 243.979 308.159 242.594 308.159ZM242 294.69C240.458 294.69 239.542 295.711 239.25 297.753H244.562V297.347C244.583 296.503 244.37 295.852 243.922 295.394C243.474 294.925 242.833 294.69 242 294.69ZM262.078 295.706L260.344 295.581C258.688 295.581 257.625 296.102 257.156 297.144V307.847H251.891V290.94H256.828L257 293.112C257.885 291.456 259.12 290.628 260.703 290.628C261.266 290.628 261.755 290.69 262.172 290.815L262.078 295.706ZM273.031 307.847C272.844 307.503 272.677 306.998 272.531 306.331C271.562 307.55 270.208 308.159 268.469 308.159C266.875 308.159 265.521 307.68 264.406 306.722C263.292 305.753 262.734 304.539 262.734 303.081C262.734 301.248 263.411 299.862 264.766 298.925C266.12 297.987 268.089 297.519 270.672 297.519H272.297V296.628C272.297 295.076 271.625 294.3 270.281 294.3C269.031 294.3 268.406 294.914 268.406 296.144H263.141C263.141 294.508 263.833 293.18 265.219 292.159C266.615 291.138 268.391 290.628 270.547 290.628C272.703 290.628 274.406 291.154 275.656 292.206C276.906 293.258 277.547 294.701 277.578 296.534V304.019C277.599 305.571 277.839 306.758 278.297 307.581V307.847H273.031ZM269.734 304.409C270.391 304.409 270.932 304.269 271.359 303.987C271.797 303.706 272.109 303.388 272.297 303.034V300.331H270.766C268.932 300.331 268.016 301.154 268.016 302.8C268.016 303.279 268.177 303.67 268.5 303.972C268.823 304.263 269.234 304.409 269.734 304.409ZM294.031 307.847H288.75V283.847H294.031V307.847ZM306.812 307.847C306.625 307.503 306.458 306.998 306.312 306.331C305.344 307.55 303.99 308.159 302.25 308.159C300.656 308.159 299.302 307.68 298.188 306.722C297.073 305.753 296.516 304.539 296.516 303.081C296.516 301.248 297.193 299.862 298.547 298.925C299.901 297.987 301.87 297.519 304.453 297.519H306.078V296.628C306.078 295.076 305.406 294.3 304.062 294.3C302.812 294.3 302.188 294.914 302.188 296.144H296.922C296.922 294.508 297.615 293.18 299 292.159C300.396 291.138 302.172 290.628 304.328 290.628C306.484 290.628 308.188 291.154 309.438 292.206C310.688 293.258 311.328 294.701 311.359 296.534V304.019C311.38 305.571 311.62 306.758 312.078 307.581V307.847H306.812ZM303.516 304.409C304.172 304.409 304.714 304.269 305.141 303.987C305.578 303.706 305.891 303.388 306.078 303.034V300.331H304.547C302.714 300.331 301.797 301.154 301.797 302.8C301.797 303.279 301.958 303.67 302.281 303.972C302.604 304.263 303.016 304.409 303.516 304.409ZM321.078 301.55L319.594 303.034V307.847H314.328V283.831H319.594V296.581L320.125 295.878L324.094 290.94H330.406L324.484 297.894L330.797 307.847H324.766L321.078 301.55ZM341.859 306.019C340.745 307.446 339.24 308.159 337.344 308.159C335.49 308.159 334.083 307.623 333.125 306.55C332.177 305.466 331.703 303.914 331.703 301.894V290.94H336.969V301.925C336.969 303.373 337.672 304.097 339.078 304.097C340.286 304.097 341.146 303.664 341.656 302.8V290.94H346.953V307.847H342.016L341.859 306.019ZM356.641 301.55L355.156 303.034V307.847H349.891V283.831H355.156V296.581L355.688 295.878L359.656 290.94H365.969L360.047 297.894L366.359 307.847H360.328L356.641 301.55ZM376.875 307.847C376.688 307.503 376.521 306.998 376.375 306.331C375.406 307.55 374.052 308.159 372.312 308.159C370.719 308.159 369.365 307.68 368.25 306.722C367.135 305.753 366.578 304.539 366.578 303.081C366.578 301.248 367.255 299.862 368.609 298.925C369.964 297.987 371.932 297.519 374.516 297.519H376.141V296.628C376.141 295.076 375.469 294.3 374.125 294.3C372.875 294.3 372.25 294.914 372.25 296.144H366.984C366.984 294.508 367.677 293.18 369.062 292.159C370.458 291.138 372.234 290.628 374.391 290.628C376.547 290.628 378.25 291.154 379.5 292.206C380.75 293.258 381.391 294.701 381.422 296.534V304.019C381.443 305.571 381.682 306.758 382.141 307.581V307.847H376.875ZM373.578 304.409C374.234 304.409 374.776 304.269 375.203 303.987C375.641 303.706 375.953 303.388 376.141 303.034V300.331H374.609C372.776 300.331 371.859 301.154 371.859 302.8C371.859 303.279 372.021 303.67 372.344 303.972C372.667 304.263 373.078 304.409 373.578 304.409ZM389.188 290.94L389.359 292.925C390.526 291.394 392.135 290.628 394.188 290.628C395.948 290.628 397.26 291.154 398.125 292.206C399 293.258 399.453 294.841 399.484 296.956V307.847H394.203V297.175C394.203 296.321 394.031 295.696 393.688 295.3C393.344 294.894 392.719 294.69 391.812 294.69C390.781 294.69 390.016 295.097 389.516 295.909V307.847H384.25V290.94H389.188ZM72.1719 340.128V347.847H66.6875V325.097H75.7656C77.5052 325.097 79.0417 325.42 80.375 326.065C81.7188 326.701 82.7552 327.612 83.4844 328.8C84.224 329.977 84.5938 331.315 84.5938 332.815C84.5938 335.034 83.7969 336.81 82.2031 338.144C80.6198 339.466 78.4427 340.128 75.6719 340.128H72.1719ZM72.1719 335.894H75.7656C76.8281 335.894 77.6354 335.628 78.1875 335.097C78.75 334.565 79.0312 333.815 79.0312 332.847C79.0312 331.784 78.7448 330.935 78.1719 330.3C77.599 329.664 76.8177 329.341 75.8281 329.331H72.1719V335.894ZM95.25 348.159C92.6562 348.159 90.5573 347.388 88.9531 345.847C87.349 344.295 86.5469 342.279 86.5469 339.8V339.362C86.5469 337.633 86.8646 336.107 87.5 334.784C88.1458 333.461 89.0833 332.44 90.3125 331.722C91.5417 330.993 93 330.628 94.6875 330.628C97.0625 330.628 98.9375 331.368 100.312 332.847C101.688 334.315 102.375 336.368 102.375 339.003V341.05H91.9062C92.0938 341.998 92.5052 342.743 93.1406 343.284C93.776 343.826 94.599 344.097 95.6094 344.097C97.276 344.097 98.5781 343.513 99.5156 342.347L101.922 345.19C101.266 346.097 100.333 346.821 99.125 347.362C97.9271 347.894 96.6354 348.159 95.25 348.159ZM94.6562 334.69C93.1146 334.69 92.1979 335.711 91.9062 337.753H97.2188V337.347C97.2396 336.503 97.026 335.852 96.5781 335.394C96.1302 334.925 95.4896 334.69 94.6562 334.69ZM109.344 330.94L109.516 332.925C110.682 331.394 112.292 330.628 114.344 330.628C116.104 330.628 117.417 331.154 118.281 332.206C119.156 333.258 119.609 334.841 119.641 336.956V347.847H114.359V337.175C114.359 336.321 114.188 335.696 113.844 335.3C113.5 334.894 112.875 334.69 111.969 334.69C110.938 334.69 110.172 335.097 109.672 335.909V347.847H104.406V330.94H109.344ZM121.953 339.269C121.953 337.56 122.234 336.05 122.797 334.737C123.359 333.425 124.167 332.414 125.219 331.706C126.271 330.987 127.495 330.628 128.891 330.628C130.651 330.628 132.026 331.222 133.016 332.409L133.203 330.94H137.984V347.206C137.984 348.696 137.635 349.987 136.938 351.081C136.25 352.185 135.25 353.029 133.938 353.612C132.625 354.206 131.104 354.503 129.375 354.503C128.135 354.503 126.932 354.269 125.766 353.8C124.609 353.331 123.724 352.722 123.109 351.972L125.312 348.878C126.292 350.034 127.583 350.612 129.188 350.612C131.521 350.612 132.688 349.414 132.688 347.019V346.487C131.677 347.602 130.401 348.159 128.859 348.159C126.797 348.159 125.13 347.373 123.859 345.8C122.589 344.216 121.953 342.102 121.953 339.456V339.269ZM127.234 339.597C127.234 340.982 127.495 342.081 128.016 342.894C128.536 343.696 129.266 344.097 130.203 344.097C131.339 344.097 132.167 343.716 132.688 342.956V335.847C132.177 335.076 131.359 334.69 130.234 334.69C129.297 334.69 128.562 335.112 128.031 335.956C127.5 336.789 127.234 338.003 127.234 339.597ZM147.766 341.55L146.281 343.034V347.847H141.016V323.831H146.281V336.581L146.812 335.878L150.781 330.94H157.094L151.172 337.894L157.484 347.847H151.453L147.766 341.55ZM164.031 347.847H158.75V330.94H164.031V347.847ZM158.438 326.581C158.438 325.831 158.708 325.216 159.25 324.737C159.792 324.258 160.495 324.019 161.359 324.019C162.224 324.019 162.927 324.258 163.469 324.737C164.01 325.216 164.281 325.831 164.281 326.581C164.281 327.331 164.01 327.946 163.469 328.425C162.927 328.904 162.224 329.144 161.359 329.144C160.495 329.144 159.792 328.904 159.25 328.425C158.708 327.946 158.438 327.331 158.438 326.581ZM172.125 330.94L172.297 332.925C173.464 331.394 175.073 330.628 177.125 330.628C178.885 330.628 180.198 331.154 181.062 332.206C181.938 333.258 182.391 334.841 182.422 336.956V347.847H177.141V337.175C177.141 336.321 176.969 335.696 176.625 335.3C176.281 334.894 175.656 334.69 174.75 334.69C173.719 334.69 172.953 335.097 172.453 335.909V347.847H167.188V330.94H172.125ZM190.906 347.847H185.625V330.94H190.906V347.847ZM185.312 326.581C185.312 325.831 185.583 325.216 186.125 324.737C186.667 324.258 187.37 324.019 188.234 324.019C189.099 324.019 189.802 324.258 190.344 324.737C190.885 325.216 191.156 325.831 191.156 326.581C191.156 327.331 190.885 327.946 190.344 328.425C189.802 328.904 189.099 329.144 188.234 329.144C187.37 329.144 186.667 328.904 186.125 328.425C185.583 327.946 185.312 327.331 185.312 326.581ZM203.688 347.847C203.5 347.503 203.333 346.998 203.188 346.331C202.219 347.55 200.865 348.159 199.125 348.159C197.531 348.159 196.177 347.68 195.062 346.722C193.948 345.753 193.391 344.539 193.391 343.081C193.391 341.248 194.068 339.862 195.422 338.925C196.776 337.987 198.745 337.519 201.328 337.519H202.953V336.628C202.953 335.076 202.281 334.3 200.938 334.3C199.688 334.3 199.062 334.914 199.062 336.144H193.797C193.797 334.508 194.49 333.18 195.875 332.159C197.271 331.138 199.047 330.628 201.203 330.628C203.359 330.628 205.062 331.154 206.312 332.206C207.562 333.258 208.203 334.701 208.234 336.534V344.019C208.255 345.571 208.495 346.758 208.953 347.581V347.847H203.688ZM200.391 344.409C201.047 344.409 201.589 344.269 202.016 343.987C202.453 343.706 202.766 343.388 202.953 343.034V340.331H201.422C199.589 340.331 198.672 341.154 198.672 342.8C198.672 343.279 198.833 343.67 199.156 343.972C199.479 344.263 199.891 344.409 200.391 344.409ZM216 330.94L216.172 332.925C217.339 331.394 218.948 330.628 221 330.628C222.76 330.628 224.073 331.154 224.938 332.206C225.812 333.258 226.266 334.841 226.297 336.956V347.847H221.016V337.175C221.016 336.321 220.844 335.696 220.5 335.3C220.156 334.894 219.531 334.69 218.625 334.69C217.594 334.69 216.828 335.097 216.328 335.909V347.847H211.062V330.94H216ZM237.438 347.847V325.097H244.766C246.776 325.097 248.583 325.555 250.188 326.472C251.792 327.378 253.042 328.664 253.938 330.331C254.844 331.987 255.302 333.847 255.312 335.909V336.956C255.312 339.039 254.87 340.909 253.984 342.565C253.109 344.211 251.87 345.503 250.266 346.44C248.672 347.368 246.891 347.836 244.922 347.847H237.438ZM242.922 329.331V343.628H244.828C246.401 343.628 247.609 343.071 248.453 341.956C249.297 340.831 249.719 339.164 249.719 336.956V335.972C249.719 333.774 249.297 332.118 248.453 331.003C247.609 329.888 246.38 329.331 244.766 329.331H242.922ZM267.406 347.847C267.219 347.503 267.052 346.998 266.906 346.331C265.938 347.55 264.583 348.159 262.844 348.159C261.25 348.159 259.896 347.68 258.781 346.722C257.667 345.753 257.109 344.539 257.109 343.081C257.109 341.248 257.786 339.862 259.141 338.925C260.495 337.987 262.464 337.519 265.047 337.519H266.672V336.628C266.672 335.076 266 334.3 264.656 334.3C263.406 334.3 262.781 334.914 262.781 336.144H257.516C257.516 334.508 258.208 333.18 259.594 332.159C260.99 331.138 262.766 330.628 264.922 330.628C267.078 330.628 268.781 331.154 270.031 332.206C271.281 333.258 271.922 334.701 271.953 336.534V344.019C271.974 345.571 272.214 346.758 272.672 347.581V347.847H267.406ZM264.109 344.409C264.766 344.409 265.307 344.269 265.734 343.987C266.172 343.706 266.484 343.388 266.672 343.034V340.331H265.141C263.307 340.331 262.391 341.154 262.391 342.8C262.391 343.279 262.552 343.67 262.875 343.972C263.198 344.263 263.609 344.409 264.109 344.409ZM281.016 326.737V330.94H283.797V334.597H281.016V342.331C281.016 342.966 281.13 343.409 281.359 343.659C281.589 343.909 282.042 344.034 282.719 344.034C283.24 344.034 283.677 344.003 284.031 343.94V347.706C283.083 348.008 282.094 348.159 281.062 348.159C279.25 348.159 277.911 347.732 277.047 346.878C276.182 346.024 275.75 344.727 275.75 342.987V334.597H273.594V330.94H275.75V326.737H281.016ZM295.406 347.847C295.219 347.503 295.052 346.998 294.906 346.331C293.938 347.55 292.583 348.159 290.844 348.159C289.25 348.159 287.896 347.68 286.781 346.722C285.667 345.753 285.109 344.539 285.109 343.081C285.109 341.248 285.786 339.862 287.141 338.925C288.495 337.987 290.464 337.519 293.047 337.519H294.672V336.628C294.672 335.076 294 334.3 292.656 334.3C291.406 334.3 290.781 334.914 290.781 336.144H285.516C285.516 334.508 286.208 333.18 287.594 332.159C288.99 331.138 290.766 330.628 292.922 330.628C295.078 330.628 296.781 331.154 298.031 332.206C299.281 333.258 299.922 334.701 299.953 336.534V344.019C299.974 345.571 300.214 346.758 300.672 347.581V347.847H295.406ZM292.109 344.409C292.766 344.409 293.307 344.269 293.734 343.987C294.172 343.706 294.484 343.388 294.672 343.034V340.331H293.141C291.307 340.331 290.391 341.154 290.391 342.8C290.391 343.279 290.552 343.67 290.875 343.972C291.198 344.263 291.609 344.409 292.109 344.409ZM330.094 347.847H324.641L316.578 333.69V347.847H311.094V325.097H316.578L324.625 339.253V325.097H330.094V347.847ZM342.844 347.847C342.656 347.503 342.49 346.998 342.344 346.331C341.375 347.55 340.021 348.159 338.281 348.159C336.688 348.159 335.333 347.68 334.219 346.722C333.104 345.753 332.547 344.539 332.547 343.081C332.547 341.248 333.224 339.862 334.578 338.925C335.932 337.987 337.901 337.519 340.484 337.519H342.109V336.628C342.109 335.076 341.438 334.3 340.094 334.3C338.844 334.3 338.219 334.914 338.219 336.144H332.953C332.953 334.508 333.646 333.18 335.031 332.159C336.427 331.138 338.203 330.628 340.359 330.628C342.516 330.628 344.219 331.154 345.469 332.206C346.719 333.258 347.359 334.701 347.391 336.534V344.019C347.411 345.571 347.651 346.758 348.109 347.581V347.847H342.844ZM339.547 344.409C340.203 344.409 340.745 344.269 341.172 343.987C341.609 343.706 341.922 343.388 342.109 343.034V340.331H340.578C338.745 340.331 337.828 341.154 337.828 342.8C337.828 343.279 337.99 343.67 338.312 343.972C338.635 344.263 339.047 344.409 339.547 344.409ZM359.172 343.097C359.172 342.649 358.938 342.289 358.469 342.019C358 341.748 357.109 341.466 355.797 341.175C354.484 340.883 353.401 340.503 352.547 340.034C351.693 339.555 351.042 338.977 350.594 338.3C350.146 337.623 349.922 336.847 349.922 335.972C349.922 334.42 350.562 333.144 351.844 332.144C353.125 331.133 354.802 330.628 356.875 330.628C359.104 330.628 360.896 331.133 362.25 332.144C363.604 333.154 364.281 334.482 364.281 336.128H359C359 334.774 358.286 334.097 356.859 334.097C356.307 334.097 355.844 334.253 355.469 334.565C355.094 334.868 354.906 335.248 354.906 335.706C354.906 336.175 355.135 336.555 355.594 336.847C356.052 337.138 356.781 337.378 357.781 337.565C358.792 337.753 359.677 337.977 360.438 338.237C362.979 339.112 364.25 340.68 364.25 342.94C364.25 344.482 363.562 345.737 362.188 346.706C360.823 347.675 359.052 348.159 356.875 348.159C355.427 348.159 354.135 347.899 353 347.378C351.865 346.857 350.979 346.149 350.344 345.253C349.708 344.357 349.391 343.414 349.391 342.425H354.312C354.333 343.206 354.594 343.779 355.094 344.144C355.594 344.498 356.234 344.675 357.016 344.675C357.734 344.675 358.271 344.529 358.625 344.237C358.99 343.946 359.172 343.565 359.172 343.097ZM376.25 347.847C376.062 347.503 375.896 346.998 375.75 346.331C374.781 347.55 373.427 348.159 371.688 348.159C370.094 348.159 368.74 347.68 367.625 346.722C366.51 345.753 365.953 344.539 365.953 343.081C365.953 341.248 366.63 339.862 367.984 338.925C369.339 337.987 371.307 337.519 373.891 337.519H375.516V336.628C375.516 335.076 374.844 334.3 373.5 334.3C372.25 334.3 371.625 334.914 371.625 336.144H366.359C366.359 334.508 367.052 333.18 368.438 332.159C369.833 331.138 371.609 330.628 373.766 330.628C375.922 330.628 377.625 331.154 378.875 332.206C380.125 333.258 380.766 334.701 380.797 336.534V344.019C380.818 345.571 381.057 346.758 381.516 347.581V347.847H376.25ZM372.953 344.409C373.609 344.409 374.151 344.269 374.578 343.987C375.016 343.706 375.328 343.388 375.516 343.034V340.331H373.984C372.151 340.331 371.234 341.154 371.234 342.8C371.234 343.279 371.396 343.67 371.719 343.972C372.042 344.263 372.453 344.409 372.953 344.409ZM399.422 339.534C399.422 342.305 398.849 344.435 397.703 345.925C396.557 347.414 394.943 348.159 392.859 348.159C391.141 348.159 389.755 347.477 388.703 346.112L388.484 347.847H383.766V323.847H389.031V332.3C390.01 331.185 391.276 330.628 392.828 330.628C394.932 330.628 396.557 331.383 397.703 332.894C398.849 334.404 399.422 336.529 399.422 339.269V339.534ZM394.141 339.206C394.141 337.581 393.922 336.425 393.484 335.737C393.057 335.039 392.396 334.69 391.5 334.69C390.312 334.69 389.49 335.144 389.031 336.05V342.769C389.479 343.664 390.312 344.112 391.531 344.112C392.771 344.112 393.557 343.508 393.891 342.3C394.057 341.706 394.141 340.675 394.141 339.206ZM411.281 347.847C411.094 347.503 410.927 346.998 410.781 346.331C409.812 347.55 408.458 348.159 406.719 348.159C405.125 348.159 403.771 347.68 402.656 346.722C401.542 345.753 400.984 344.539 400.984 343.081C400.984 341.248 401.661 339.862 403.016 338.925C404.37 337.987 406.339 337.519 408.922 337.519H410.547V336.628C410.547 335.076 409.875 334.3 408.531 334.3C407.281 334.3 406.656 334.914 406.656 336.144H401.391C401.391 334.508 402.083 333.18 403.469 332.159C404.865 331.138 406.641 330.628 408.797 330.628C410.953 330.628 412.656 331.154 413.906 332.206C415.156 333.258 415.797 334.701 415.828 336.534V344.019C415.849 345.571 416.089 346.758 416.547 347.581V347.847H411.281ZM407.984 344.409C408.641 344.409 409.182 344.269 409.609 343.987C410.047 343.706 410.359 343.388 410.547 343.034V340.331H409.016C407.182 340.331 406.266 341.154 406.266 342.8C406.266 343.279 406.427 343.67 406.75 343.972C407.073 344.263 407.484 344.409 407.984 344.409ZM423.906 332.753C425.031 331.336 426.469 330.628 428.219 330.628C430.083 330.628 431.49 331.18 432.438 332.284C433.385 333.388 433.87 335.019 433.891 337.175V347.847H428.609V337.3C428.609 336.404 428.427 335.748 428.062 335.331C427.698 334.904 427.078 334.69 426.203 334.69C425.12 334.69 424.354 335.034 423.906 335.722V347.847H418.641V323.847H423.906V332.753ZM440.078 342.737C440.911 342.737 441.604 342.987 442.156 343.487C442.708 343.977 442.984 344.607 442.984 345.378C442.984 346.149 442.708 346.784 442.156 347.284C441.604 347.774 440.911 348.019 440.078 348.019C439.234 348.019 438.536 347.769 437.984 347.269C437.443 346.769 437.172 346.138 437.172 345.378C437.172 344.618 437.443 343.987 437.984 343.487C438.536 342.987 439.234 342.737 440.078 342.737Z" fill="white"/>
<defs>
<filter id="filter0_di" x="138.829" y="92.0569" width="232.661" height="231.499" filterUnits="userSpaceOnUse" color-interpolation-filters="sRGB">
<feFlood flood-opacity="0" result="BackgroundImageFix"/>
<feColorMatrix in="SourceAlpha" type="matrix" values="0 0 0 0 0 0 0 0 0 0 0 0 0 0 0 0 0 0 127 0"/>
<feOffset dy="40"/>
<feGaussianBlur stdDeviation="26"/>
<feColorMatrix type="matrix" values="0 0 0 0 0.236667 0 0 0 0 0.267433 0 0 0 0 0.295833 0 0 0 0.2 0"/>
<feBlend mode="normal" in2="BackgroundImageFix" result="effect1_dropShadow"/>
<feBlend mode="normal" in="SourceGraphic" in2="effect1_dropShadow" result="shape"/>
<feColorMatrix in="SourceAlpha" type="matrix" values="0 0 0 0 0 0 0 0 0 0 0 0 0 0 0 0 0 0 127 0" result="hardAlpha"/>
<feOffset dx="4" dy="4"/>
<feGaussianBlur stdDeviation="2"/>
<feComposite in2="hardAlpha" operator="arithmetic" k2="-1" k3="1"/>
<feColorMatrix type="matrix" values="0 0 0 0 1 0 0 0 0 1 0 0 0 0 1 0 0 0 0.25 0"/>
<feBlend mode="normal" in2="shape" result="effect2_innerShadow"/>
</filter>
<filter id="filter1_d" x="166.829" y="22.5981" width="165.827" height="237.121" filterUnits="userSpaceOnUse" color-interpolation-filters="sRGB">
<feFlood flood-opacity="0" result="BackgroundImageFix"/>
<feColorMatrix in="SourceAlpha" type="matrix" values="0 0 0 0 0 0 0 0 0 0 0 0 0 0 0 0 0 0 127 0"/>
<feOffset dy="4"/>
<feGaussianBlur stdDeviation="12"/>
<feColorMatrix type="matrix" values="0 0 0 0 0 0 0 0 0 0 0 0 0 0 0 0 0 0 0.12 0"/>
<feBlend mode="normal" in2="BackgroundImageFix" result="effect1_dropShadow"/>
<feBlend mode="normal" in="SourceGraphic" in2="effect1_dropShadow" result="shape"/>
</filter>
<linearGradient id="paint0_linear" x1="206.912" y1="125.838" x2="304.017" y2="207.72" gradientUnits="userSpaceOnUse">
<stop stop-color="#CECECE"/>
<stop offset="1" stop-color="white"/>
</linearGradient>
</defs>
</svg>
